<?xml version="1.0" encoding="utf-8"?>
<!-- Generator: Adobe Illustrator 20.1.0, SVG Export Plug-In . SVG Version: 6.00 Build 0)  -->
<svg version="1.1" id="Layer_1" xmlns="http://www.w3.org/2000/svg" xmlns:xlink="http://www.w3.org/1999/xlink" x="0px" y="0px"
	 viewBox="0 0 100 125" style="enable-background:new 0 0 100 125;" xml:space="preserve">
<style type="text/css">
	.st0{fill:#B0BEC5;}
</style>
<path class="st0" d="M50,5C28.7,5,11.5,22.2,11.5,43.5c0,3,0.4,5.9,1,8.8c0.7,2.4,3.8,9.8,15.8,9.8c4.1,0,6.5-1,8.1-2.4l9.6,7.7
	v20.3l-2.7,4.8c-0.6,1.1,0.2,2.5,1.5,2.5h12.8c1.3,0,2.1-1.4,1.5-2.5l-2.7-5.2l-0.1-20.1l9.5-7.7C67.6,61,70,62,74.1,62
	c7.5,0,11.1-3.9,12.8-7.5c1-3.5,1.6-7.2,1.6-11C88.5,22.2,71.3,5,50,5z M43.1,52l2.9,9.2l-6.5-5.3C40.5,54.5,41.5,53.1,43.1,52z
	 M62.7,56L56,61.4l3-9.4C60.6,53.1,61.6,54.5,62.7,56z M51.3,50c1.2,0,2.2,0.1,3.2,0.2L51,61l-3.4-10.7C48.7,50.1,49.9,50,51.3,50z"
	/>
</svg>
