<?xml version="1.0" encoding="utf-8"?>
<!-- Generator: Adobe Illustrator 20.1.0, SVG Export Plug-In . SVG Version: 6.00 Build 0)  -->
<svg version="1.1" id="Layer_1" xmlns="http://www.w3.org/2000/svg" xmlns:xlink="http://www.w3.org/1999/xlink" x="0px" y="0px"
	 viewBox="0 0 100 125" style="enable-background:new 0 0 100 125;" xml:space="preserve">
<style type="text/css">
	.st0{fill:#1F77B4;}
</style>
<path class="st0" d="M89.1,29c-3.2,1.4-2.9,0.1-4.6-0.2c-1-0.2-2.2,0-3,0.2c3.2-3.2,1.4-5.9,1.4-5.9c-0.4,2.8-1,3.5-2.4,5
	c-2.9,3.1-4,6.9-4.5,8.6c-3.5,0.7-9.5,1.4-9.1,6.5c0.4,5.8-1.5,7.3-3.9,8.5c-2.3,1-9.3,0.4-14.1,5.7c1.4-3.4,4.3-6,7.3-8.3
	c3.9-3.1,4.7-6.7,4.7-6.7c0.2-2.3-0.6-3.9-2-5.2c0-1.5,0.4-3.4,2.5-4.3c3.8-1.5,8.7-3,10.6-6.6s8.1-6.2,8.1-6.2l8.1-3.1
	c0,0-12.9,1.7-18.3,8.7c-0.3-1.3-1.1-4.1-2.5-5.5c-1.8-1.9,0-5.4,0-5.4l2.2-4.4c0,0-5,3.6-4.9,7.5c-1.5,1.3-3.9,3.8-5.1,6.6
	c-0.4,1-1,1.6-1.7,2c0.3-0.9,0.3-2.1-0.7-3.2c-1.1-1.1-1-2.7-0.6-4c3.5-1.9,5.5-3.7,4.7-6.5c-1.3-4.9-5.6-4.4-5.5-8
	c0,0-2.6,0.5,2.3,6c4.1,4.6-5.3,8.2-11.1,10.7c-1-4.2-4.5-5.8-8.9-7.6c-2.8-1.1-6-3.9-7.5-5.2c-0.1-0.1-0.3,0.1-0.2,0.2
	c1.5,2.3,4.9,5.7,6.5,6.2c2.3,0.7,3.9,1.6,5,2.6c-1.6,0.1-4.9,0.4-7.6,0.9c-3.7,0.7-6.7-0.9-6.7-0.9s1.3,1.5,3.9,2
	s11.7-0.5,11.7-0.5l0,0c1.1,1.4,1.4,2.7,1.5,3.3c-0.3,0.2-0.6,0.3-0.9,0.4c-3.8,2.2-6.5,5.1-5.2,9c-2.6-0.7-4.8-1.6-9.7-2.7
	c-6.4-1.5-6.2-6.6-6.2-6.6c-0.2-11.1-6.8-9.8-6.8-9.8s6.2,0.4,5.3,9.8c-0.7,6.6,4.4,7.7,9.6,8.8l-3.6,5.7c-0.7-0.6-2.9-2.4-4-4.1
	c-1-1.5-5-3.8-7.2-3.1c-1.3-2.6,0.7-8.7,1.4-10.7c0.1-0.3-0.1-0.6-0.5-0.6c-0.2,0-0.4,0.1-0.5,0.3c-0.3,0.8-1,2.9-1.8,5.6l0,0
	c-4.1,0.9-8.5-3.8-8.5-3.8c3.3,5.3,6.6,5.3,8.1,5.2l0,0c-1.1,4.1,3.4,8.3,3.8,10.3c0.3,1.8-1.5,5.7-2,6.6c-2.4-0.8-5-3.9-5-3.9
	c-3.9-0.9,3,5,4.9,6.5s3.4,7,4.7,8.3c0.7,0.8,5.4,1.3,9.4,1.6l0,0c0,0-1.5,3-2.1,3.1s-3.7,2.1-5,1.2c-1.3-0.8-1.5-2.1-1.5-2.1H21
	c0,0-0.3,3.1,2.3,3.6c1.9,0.4,3.2-0.4,5-1c-1.3,2.4,0.9,4.1,0.9,4.1c3,1.6,3.5,5.9,3.5,5.9c1.4-3.1-0.6-4.6-2.3-6.3
	c-1.1-1.1-0.8-3.2-0.4-4.4c0.5-0.3,0.9-0.7,1.2-1.2l1.5-2.7c0.8,0.1,1.5,0.1,2,0.1c0.6,1.8,0.7,3.2,0.8,4c0.3,1.7,4.9,6.9,4.9,6.9
	l0,0c0.3,5.1,2.6,9.4,3.1,12.4c0.8,4.1-4.9,8.8-4.9,8.8c-3.9,2.1-7.5,2.3-5.9,2.6c1.6,0.4,6.6,0.9,9.8-0.4c3.1-1.3,7.8-1.1,7.8-1.1
	c3.2,2.3,7.1,2.1,13.3,2.8c6.2,0.8,10.9,3.2,11.8,3s0.6-1.5-3.9-3.5C67,89.4,61,90.5,58.8,86.2c-2.3-4.3-6.2-7.9-7.7-11.7
	c-1.4-3.4-2.9-7.8-2.9-12.3c0.8-1,3.7-4.2,7.6-5.6c4.5-1.7,8.3-1.3,12.4-4.5l0.1-0.1c9.6,1.5,11.9-6.5,16.2-7.2
	c3.8-0.6,5.6-3.4,6.2-4.5c0.1-0.2,0.1-0.5-0.1-0.8c-0.3-0.4-0.9-0.4-1.2,0c-0.8,1.3-2.4,3.5-4.9,3.7c-2.2,0.2-2.7,0.7-4,1.8
	c-0.2-0.9-0.7-2.2-1.7-4c-0.3-0.6-0.5-1.8-0.7-2.7c0.5-0.2,0.9-0.4,1.3-0.6c1.4-1,3.6-3,5-4.4c0.2-0.2,0-0.4-0.2-0.3
	c-1.6,1-4,2.4-5.9,3.1c0.1-0.6,0.3-1.5,0.4-1.8c0.7-1.8,1-2.7,1.5-3.6c1.9-0.7,3.7-0.8,4.9-0.4c1.5,0.5,2.8,0.3,5-0.7
	s2.6-0.9,2.6-0.9l0.8-0.1C92,27.9,92.4,27.6,89.1,29z M50.7,46.8c-0.3,0.2-0.7,0.4-1,0.5c-1.3-0.7-4.5-2.7-4.8-3.5
	c-0.4-1,2.7-3.4,1.2-5.8c-0.7-1.1-1.3-2-1.8-2.7c4.3,0.7,8.2,1,9.6,2.7C55.9,40.6,55.7,44.1,50.7,46.8z M59.7,28.1
	c1.9-1.4,2.5-6.6,5.3-8.8c0.1,0.3,0.2,0.6,0.4,0.9c1.9,3.1,2.5,6,2.7,7.6c-3.4,2.4-8.9,1.7-10.8,5.1c-0.5,0.9-0.9,1.7-1.1,2.5
	c-1.3-0.6-2.8-1-4.3-1.4c-0.4-1.1-0.7-2.6-0.3-3.6C52.4,28.6,57.6,29.7,59.7,28.1z M46.1,24.6c3.6-1.8,6.9-3.3,9.6-4.6
	c-0.5,2.1,0,4,0.7,5c0.5,0.6,0.2,1.5-0.1,2.2c-2.1,0.4-4.5-0.1-6.1,0.9c-2,1.1-1.7,3.9-1.3,5.4c-2.7-0.4-5.2-0.5-6.7-0.7
	C40.9,31.3,39.3,28.1,46.1,24.6z M26.7,53c-7.3-0.7-6.9-7.7-8.5-9.4c0.8-2.3,2.1-5.7,2.2-6.6c0.2-1.2-1.9-3.4-3.6-6.1
	c1.1,0,3,0.4,4.6,2c2.3,2.5,2.2,3.3,3.6,4.1c0.8,0.5,1.5,1.5,1.9,2.4c-1,5.5,3.5,10,3.5,10c1.6,1.4,2.7,2.9,3.4,4.3
	C32.4,53.6,30.1,53.3,26.7,53z M41.1,60.6C41,60.8,41,61,40.9,61.2c-0.6-0.9-1.3-2.2-1.4-3.6c-0.2-2.9-3-7.7-5.7-8.8
	c-2.6-1.2-5.8-6.7-4.7-9.5C30.4,36.4,33,32,33,32c1.6,0.4,3.1,0.8,4.4,1.4c0.9,0.4,1.8,0.8,2.8,1c0.7,1,2,2.8,3.3,4.6
	c0.9,1.3-2.5,3.5-1.3,5.4c0.8,1.3,3.3,3.7,4.8,5.1C44.3,51.9,42.8,55.1,41.1,60.6z M77.9,43.1c0.9,1.2,1,2.3,0.9,3.1
	c-0.6,0.4-1.3,0.9-2.2,1.4c-3.1,1.8-5.4,1.8-6.7,1.5c0.6-3.2-1.3-7,0.7-8.8c1.6-1.4,3.6-1.5,5.5-1.8C76.3,39.6,76.7,41.6,77.9,43.1z
	"/>
</svg>
