<?xml version="1.0" encoding="utf-8"?>
<!-- Generator: Adobe Illustrator 20.1.0, SVG Export Plug-In . SVG Version: 6.00 Build 0)  -->
<svg version="1.1" id="Layer_1" xmlns="http://www.w3.org/2000/svg" xmlns:xlink="http://www.w3.org/1999/xlink" x="0px" y="0px"
	 viewBox="0 0 100 125" style="enable-background:new 0 0 100 125;" xml:space="preserve">
<style type="text/css">
	.st0{fill:#2CA02C;}
</style>
<path class="st0" d="M84.8,31.8c-2.9-0.7-2.5-3.2-9.7-5.8c-7.3-2.6-12-0.7-14.5-0.7s-5.8-3.7-12.8-3.8c-10.7,0-17.8,3.6-19.8,7.2
	c0,0.1-0.1,0.1-0.1,0.2c-2-0.4-5.2-0.5-8.8,0.8c-4.5,1.7-5.7,4.9-5.7,4.9S5.6,36.6,5,41c-0.3,2.8,2,4.8,5.2,4c1-0.3,2-0.6,2.9-1.1
	c0.6,0.4,1.4,0.8,2.5,1.1c2.8,0.7,8.1-1.3,8.1-1.3l0,0c1.6,0.3,3.1,0.3,3.9,0c2-0.8,7.9,2.8,8.9,3.4c0.4,1.7,1.3,3.9,3.6,5.2
	c4.3,2.4,3.5,8.8,7.2,12.2c6.5,6.1,2,14,2,14h6.5c0,0,0.9-10.1,1-14.7c0-3.1,4.2-7.7,5.6-11.8c1.3-3.9,0.9-7.7,3.7-9.3
	c1.1,0.4,3.4,1.1,5.1,1.1c3.1,0,3.9-1,7.5-1.3c2.3-0.2,4.2-1.7,5.3-2.7c4,0.9,8.9,1.6,10.5,0.1C97.4,37.3,87.7,32.5,84.8,31.8z
	 M47.4,38.8c0.9,0.1,2,0.2,3,0.2c0.3,0.5,0.6,1,0.9,1.4c-0.4,0.4-1.1,1-2.1,2.1c-1.5,1.6-3.7,1.5-4.8,1.4
	C44.7,42.3,45.4,40.4,47.4,38.8z M17.6,44.2c-0.9,0.1-2.4-0.3-3.6-0.7c1.4-0.7,2.7-1.5,3.7-2.4c1,0.9,2.5,1.6,4.1,2.1
	C21,43.5,19.1,44,17.6,44.2z M23.2,42.5c-1.6-0.1-3.8-1-5.1-1.6c0.4-0.3,0.7-0.6,1-0.9c0,0,4,2,8.4,0c3.4,1.1,6.5,1,8.9,0.5
	c-0.3,1.2-0.4,2.7-0.1,4.1c0,0,0,0.1,0,0.4c-0.8-0.3-2.7-1.2-4.6-2.4C29.2,41,25.6,42.6,23.2,42.5z M38.7,39.7c2.5-0.9,4-2.1,4-2.1
	c0.6,0.4,1.5,0.7,2.6,0.9c-0.6,0.5-1.2,1.1-1.6,1.7c-0.9,1.7-1.9,7.2-3,9.4c-0.2-0.1-0.4-0.3-0.6-0.4C37.5,47.2,38.2,41.9,38.7,39.7
	z M55.2,57.1c-2.3,2.2-2.5,6.2-2.5,6.2s-2.5-0.3-5.7-5c-2.3-3.3-3.1-5.2-4.6-7l0,0c0,0,1.1-3.5,1.6-5.8h1.1c2.9,0,4.7-2.3,5.2-3
	c0.4-0.4,1-1.2,1.5-1.7h0.1c1.8,0.7,4.9,3.3,4.9,6.3c0,1.2,1.1,3.9,1.8,5.4C57.6,54.3,56.3,56,55.2,57.1z M63.1,42.5
	c-0.5,0.6-1.6,3.5-2.1,5.4c-0.1,0.6-0.5,1.4-1,2.4c0,0-0.6-3.7-1.9-6.3c-1.2-2.4-4.6-4-5.8-4.9c5.4,0,10.9-0.7,10.9-0.7
	c1.4,0.3,3.4,0.4,5.4,0.5C66.8,39.8,63.4,42,63.1,42.5z M79.6,40.8c-1.7,0.1-9.5,2.1-11.4,0.6c1.3-1,2.1-2,2.4-2.6
	c4-0.1,7.8-0.4,7.8-0.4s1.7,0.6,4,1.1C81.7,40.1,80.6,40.8,79.6,40.8z"/>
</svg>
