<?xml version="1.0" encoding="utf-8"?>
<!-- Generator: Adobe Illustrator 20.1.0, SVG Export Plug-In . SVG Version: 6.00 Build 0)  -->
<svg version="1.1" id="Layer_1" xmlns="http://www.w3.org/2000/svg" xmlns:xlink="http://www.w3.org/1999/xlink" x="0px" y="0px"
	 viewBox="0 0 100 125" style="enable-background:new 0 0 100 125;" xml:space="preserve">
<style type="text/css">
	.st0{fill:#D62728;}
</style>
<g>
	<path class="st0" d="M45.6,12.1c0.9,0.2,1.6,0.3,2.2,0.4c1.7,0.2,2.9,0.4,4.1,3.2c0.2,0.6,0.3,1.1,0.4,1.6v0.1
		c0.6,0,1.3-0.1,2.1-0.2h0.4c0.4,0,0.9-0.1,1.4-0.1c1.7,0,3.4,0.3,4.7,0.7c0.9-0.4,1.8-0.7,2.7-0.7c0.2,0,0.3,0,0.5,0
		c0.6-0.6,1.4-1,2.3-1c1.2,0,2.3,0.6,3.3,1.2c0.2,0.1,0.4,0.3,0.7,0.4c0.9,0.5,1.8,1,2.7,1.3c0.4,0.1,0.6,0.1,0.7,0.1s0.1,0,0.2-0.1
		c0.2-0.1,0.5-0.3,1.1-0.4c-0.2-0.2-0.4-0.3-0.7-0.5c-0.6-0.4-1.2-0.8-2-1.5c-0.6-0.5-1-1-1.3-1.5c-0.7-0.9-1.2-1.5-2.4-1.8
		c-0.3-0.1-0.8-0.1-1.2-0.1c-0.7,0-1.4-0.1-2.1-0.4c-0.4-0.2-0.6-0.6-0.7-0.8c0-0.1-0.1-0.2-0.1-0.3c-1-0.6-1.8-0.8-2.8-1.1
		c-0.3-0.1-0.6-0.2-0.9-0.2c-0.8-0.2-1.6-0.6-2.3-1c-1.2-0.6-2.1-1-3-0.7C55.1,8.8,55,9,54.9,9.1c-0.5,0.5-0.9,0.7-2.1,0.7
		c-1.3,0-2.4-0.2-3.5-0.5c-0.2-0.1-0.5-0.1-0.7-0.2C48,9,47.3,8.8,46.7,8.8c-0.9,0-1.4,0.3-1.7,1.1c-0.1,0.4-0.5,0.6-0.9,0.6
		c-0.5,0-0.9,0.2-1.4,0.4c0.4,0.1,0.9,0.3,1.3,0.5C44.5,11.7,45,12,45.6,12.1z"/>
	<path class="st0" d="M7,37.9c1.3,1.7-0.2,2.4-0.2,4.5c0,3.1,2.1,3.6,4,5.2c1.3,1.2,0.8,0.7,1.1,2.5c0.2,1.2,0.3,1.5,1.1,2.4
		c1.8,2.3,4.6,1.7,7.3,2.4c1.1,0.3,2.7,0.7,4.1,0.7c0.6,0,1.3-0.1,1.8-0.3c1.8-0.7,2.1-2.6,3.4-3.5c0.6-0.4,1.6-0.2,2.3-0.4
		c1.2-0.4,1.6-1.4,2.5-2c1.6-1,3.2-0.4,4-2.5c0.5-1.4,0.5-3.6,0-5c-0.3-0.8-0.6-1.2-1.1-1.8c-0.6-0.7-1.9-0.8-2.5-1.4
		c-0.9-1-0.6-2.6-1.4-3.8c-1.1-1.5-3.1-3-5-3.3C27.2,31.4,27,31.7,26,31c-0.5-0.3-0.9-1.3-1.6-1.7c-1.6-0.9-4.1-1.6-6.3-1.6
		c-0.6,0-1.3,0.1-1.8,0.2c-2.7,0.6-3.3,3.1-5.1,4.5C10.4,32.9,9.7,33,9,33c-0.4,0-0.7,0-1.1,0c-0.8,0-1.5,0.1-2.1,0.9
		C3.9,36.1,5.8,36.3,7,37.9z"/>
	<path class="st0" d="M72.7,20.8c-1.2-0.3-2.2-0.9-3.2-1.5c-0.2-0.1-0.4-0.3-0.6-0.4C68,18.4,67.1,18,66.4,18
		c-0.3,0-0.8,0.1-1.2,0.7c-0.2,0.3-0.6,0.5-1,0.4C64,19,63.8,19,63.6,19c-0.1,0-0.3,0-0.4,0c1.2,0.8,2.8,1.9,3.8,3.5
		c0.3,0.5,0.4,1,0.5,1.4c0.2,0.6,0.3,1,0.5,1.1c0.3,0.2,1,0.2,1.6,0.3c0.9,0.1,1.7,0.1,2.4,0.5c2.1,1.1,3.8,3.8,4.3,5.9
		c0.3,1.3,0,2.4-0.2,3.4c-0.1,0.5-0.3,1-0.3,1.5s0,1.1,0,1.7c0,0.4,0,0.8,0,1.3c0.9-0.1,1.9-0.2,3-0.1c2.2,0.1,3.9,0.9,5.5,1.7
		c0.6,0.3,1.2,0.6,1.8,0.8c1,0.4,1.9,0.8,2.7,1.2c0.4,0.2,0.7,0.4,1,0.6c0-0.1,0-0.2-0.1-0.3c-0.2-0.6-0.3-1.3-0.2-2
		c0.1-0.5,0.2-0.7,0.4-1.1l0.1-0.3c0.2-0.4,0.4-0.8,0.6-1.1s0.4-0.7,0.6-1c0.7-2,0.5-2.3-0.4-3.3c-0.4-0.5-1-1.1-1.5-2.1
		c-0.4-0.7-0.6-1.3-0.8-1.8c-0.4-1.1-0.7-1.8-1.8-2.4c-0.3-0.2-0.7-0.3-1.1-0.5c-0.7-0.2-1.3-0.5-1.9-1c-0.3-0.3-0.4-0.7-0.5-1
		c0-0.1,0-0.2-0.1-0.3c-0.8-0.8-1.5-1.3-2.4-1.8c-0.3-0.2-0.5-0.3-0.8-0.5c-0.7-0.5-1.4-1-1.9-1.6c-1.1-1-1.7-1.6-2.7-1.5
		c-0.4,0-0.5,0.1-0.7,0.2C74.5,20.9,74,21.1,72.7,20.8z"/>
	<path class="st0" d="M78.6,70h-0.2c-2.2,0-5.2-0.5-7-1.6c-1-0.6-1.4-1.5-1.8-2.2c-0.2-0.5-0.4-0.9-0.7-1.1
		c-0.3-0.3-1.1-0.4-1.8-0.4c-0.4-0.1-0.9-0.1-1.3-0.2c-1.7-0.1-3.8,1-4.4,2.5c-0.4,0.8-0.2,1.6,0.4,2.2c1.3,1.4,1.5,1.7,2.1,3.4
		c0.6,1.4,1.3,2.1,2.7,2.5c0.8,0.2,1.8,0.3,2.9,0.3c0.7,0,1.4,0,1.9-0.1c0.2,0,0.5-0.1,0.7-0.1c0.5-0.1,0.9-0.1,1.2-0.1
		c0.6,0,1.2,0.2,2.1,0.5c1,0.4,2,0.6,2.9,0.6c1.8,0,2.8-0.8,3.3-2.4c0.1-0.3,0.4-0.6,0.7-0.7c2-0.3,3.4-1.5,3.7-3.2
		c0.2-1.1-0.2-2.1-1-2.9C83.7,69.1,81,70,78.6,70z"/>
	<path class="st0" d="M74.4,34.6c0.2-0.9,0.5-1.6,0.2-2.5c-0.4-1.7-1.8-3.9-3.4-4.7c-0.4-0.2-1.1-0.2-1.8-0.3
		C68.5,27,67.6,27,67,26.6c-0.9-0.5-1.1-1.5-1.4-2.2c-0.1-0.4-0.2-0.7-0.3-0.9c-0.8-1.3-2.4-2.6-4.4-3.6c-1.2-0.6-3-0.9-4.9-0.9
		c-0.4,0-0.8,0-1.2,0.1h-0.4c-1.5,0.1-2.8,0.3-4.2,0.3c-1.2,0-2.3-0.1-3.5-0.3c-3.1-0.4-6.3,1.6-8,4.9c-0.1,0.3-0.4,0.4-0.7,0.5
		c-1.4,0.2-3.2,1.5-4.3,3.1c-0.7,1.1-1,2.2-0.8,3c0.5,1.9,3.7,2.2,6.4,2.2c0.3,0,0.6,0.2,0.8,0.5c0.1,0.2,0.2,0.4,0.3,0.6
		c0.8,1.4,1.2,2.2,2.6,2.9c1,0.5,2,0.6,3,0.8c0.6,0.1,1.3,0.2,2,0.3c1.2,0.3,2.5,0.6,3.8,0.6l0,0c0.7,0,1.4-0.1,2-0.3
		c0.9-0.4,1.8-1.1,2.7-1.7c0.3-0.3,0.7-0.5,1-0.8c0.2-0.1,0.3-0.2,0.5-0.2c0.1,0,0.2,0,0.3,0c0.3,0.1,0.5,0.3,0.6,0.6
		c0.8,2.4,2.6,3.2,5.2,3.6c0.5,0.1,0.8,0.5,0.7,1c-0.1,0.9,0.1,1.6,0.6,2.1c0.2,0.2,0.5,0.5,0.8,0.7c0.3-0.2,0.6-0.4,0.9-0.5
		c0.8-0.4,1.5-0.7,2.2-1.1c1.5-0.8,3-1.5,4.5-1.9c0-0.5,0-1.1,0-1.6c0-0.7,0-1.3,0-1.9C74.1,35.9,74.2,35.2,74.4,34.6z"/>
	<path class="st0" d="M27.2,69.5l-6-2.3c-0.7-0.3-1.2-0.8-1.5-1.5s-0.2-1.5,0.1-2.2c0.4-0.8,1.3-1.4,2.2-1.4c0.4,0,0.8,0.1,1.1,0.3
		c0.9,0.5,3.3,1.6,5.2,2c1.2,0.3,3.2,0.9,5.1,1.5c-1.2-3.5-1.8-6.3-1.9-6.7l0.1-0.2c-0.4,0-0.7-0.1-1-0.3c-0.4-0.4-0.6-1.5-0.9-2
		c-0.2-0.4-0.5-0.9-0.8-1.2c-0.5,0.6-1.2,1.2-2.2,1.6c-0.7,0.3-1.5,0.4-2.4,0.4c-1.3,0-2.8-0.3-4.6-0.8c-0.7-0.2-1.4-0.3-2.2-0.4
		c-1.8-0.2-3.9-0.5-5.5-2.1c-0.3,0.2-0.6,0.4-0.9,0.7c-0.5,0.5-0.8,1.1-1.4,1.6c-0.6,0.6-1.4,0.8-2.2,1.4c-1.6,1.2-2,3.7-1.2,5.6
		c0.9,2.4,3.6,2.4,5.1,3.8s1.6,3.4,3.7,4.6c1.7,0.9,4.8,1.6,6.7,0.3c2.2,2.7,6.6,4.9,10.2,3.1c0.5-0.3,0.9-0.8,1.4-1.1
		c0.8-0.5,1-0.4,2-0.6c0.7-0.2,1.2-0.1,1.6-0.3l-0.1-0.1L27.2,69.5z"/>
	<path class="st0" d="M15.7,26.1c0.7-0.1,1.4-0.2,2.2-0.2c2.5,0,5.4,0.7,7.2,1.8c0.7,0.4,1.2,1,1.5,1.5c0.1,0.1,0.2,0.3,0.3,0.3
		c0.1,0.1,0.1,0.1,0.2,0.1c0,0,0.1,0,0.2,0c0.3,0,0.7,0,1.2,0.1c0.9,0.2,1.8,0.5,2.6,1c-0.2-1.3,0.2-2.7,1.1-4.2
		c1.3-1.9,3.3-3.4,5.1-3.8c2.2-3.8,5.9-6,9.7-5.5c1.2,0.2,2.2,0.2,3.3,0.2c0.1,0,0.1,0,0.2,0c-0.1-0.4-0.1-0.7-0.3-1.1
		c-0.8-1.9-1.2-2-2.6-2.1c-0.7-0.1-1.5-0.1-2.5-0.4c-0.7-0.2-1.3-0.5-1.8-0.7c-0.7-0.3-1.3-0.6-2.1-0.6c-0.3,0-0.6,0-0.9,0.1
		c-0.4,0.1-0.7,0.2-1.1,0.4c-0.6,0.3-1.3,0.6-2,0.6l0,0c-0.5,0-0.8-0.2-1-0.4c-0.1,0-0.2-0.1-0.2-0.2c-0.2,0-0.3,0-0.5,0
		c-0.9,0-1.6,0.2-2.5,0.4c-0.3,0.1-0.6,0.1-0.9,0.2c-0.8,0.2-1.7,0.2-2.5,0.2c-1.4,0-2.4,0.1-2.9,0.8c-0.3,0.3-0.3,0.5-0.4,0.7
		c-0.2,0.6-0.5,1-1.5,1.6c-1.1,0.6-2.2,0.9-3.3,1.1c-0.2,0.1-0.5,0.1-0.7,0.2c-2.3,0.6-3,1.2-2.8,2.3c0.1,0.4-0.1,0.8-0.5,1
		c-1.3,0.7-1.9,2.9-1.9,4.7l0,0C15.5,26.2,15.6,26.2,15.7,26.1z"/>
	<path class="st0" d="M51.4,51.9c0.4,0.3,0.8,0.6,1.2,1c0.3,0.2,0.6,0.5,0.8,0.7c1.2,1,2.2,2,3.7,2.6c0.2,0.1,0.5,0.1,0.9,0.1
		c0.2,0,0.3,0,0.5,0s0.4,0,0.5,0c0.3,0,0.7,0,1.1,0.1c0.6,0.2,1,0.5,1.4,0.8c0.3,0.3,0.6,0.5,1,0.6s0.8,0.2,1.1,0.2l0,0
		c1.2,0,2.4-0.5,3.2-1.4c0.1-0.1,0.2-0.4,0.2-0.6c0.1-0.4,0.2-0.8,0.6-1.2s0.9-0.6,1.4-0.7c0.4-0.1,0.6-0.2,0.7-0.3
		c0-0.1,0.1-0.3-0.1-0.8c-0.4-1.1-1.3-2.1-1.6-2.3c-0.2-0.1-0.4-0.3-0.5-0.6c-0.5-1.6-1.8-2-3.9-2.5c-1.5-0.4-3.3-0.8-4.5-2.2
		c-0.3-0.1-0.5-0.1-0.8-0.2c-0.7-0.2-1.1-0.3-2.1-0.3H56c-3,0-6,1.2-6.8,2.6c-0.4,0.7-0.3,1.4,0.2,2.3
		C49.9,50.8,50.6,51.3,51.4,51.9z"/>
	<path class="st0" d="M94.6,52.4c-0.3-0.7-0.7-1-1.3-1.4c-0.4-0.3-0.9-0.7-1.4-1.3c-0.2-0.3-0.4-0.6-0.5-1.1c-0.6-1.6-1.8-3-3.3-3.8
		c-0.8-0.4-1.6-0.8-2.5-1.1c-0.7-0.3-1.3-0.6-2-0.9c-1.5-0.7-3-1.4-4.8-1.5c-0.3,0-0.6,0-0.8,0c-3,0-5,1-7.6,2.3
		c-0.7,0.4-1.5,0.7-2.3,1.1c-0.8,0.4-1.6,1-2.3,1.7c1.4,0.5,2.7,1.2,3.4,2.9c0.9,0.6,1.8,2,2.2,3.1c0.3,0.9,0.3,1.6,0.1,2.2
		c-0.4,0.9-1.3,1.1-1.8,1.3C69.3,56,69,56.1,69,56.1s-0.1,0.3-0.1,0.4c-0.1,0.4-0.3,0.9-0.6,1.3c-1.1,1.2-2.8,2-4.5,2l0,0
		c-0.2,0-0.5,0-0.7-0.1c0.5,1.1,1.6,2,2.5,2.5c0.5,0.3,1.2,0.4,2,0.5c0.9,0.1,1.9,0.3,2.6,0.8c0.6,0.5,1,1.1,1.3,1.7
		s0.6,1.1,1.1,1.4c1.5,0.9,4.2,1.3,6.1,1.3h0.1c2.4,0,5.1-1.1,5.4-3.6c0-0.3,0.2-0.5,0.4-0.6c0.2-0.2,0.5-0.2,0.7-0.1l0.3,0.1
		c1.1,0.3,2.7,0.6,4.1,0.6c1.3,0,2.2-0.3,2.6-1c0.8-1.1,0.6-3.4-0.2-4c-0.2-0.2-0.3-0.4-0.4-0.7c0-0.3,0.1-0.5,0.3-0.7
		c0.3-0.3,0.6-0.5,0.9-0.7C94.7,55.7,95.6,54.9,94.6,52.4z"/>
	<path class="st0" d="M59.6,66.8c-1.5,1.4-5.2,5.1-6.1,8.4l1.9-11.4c2.2-1.1,4.4-2.6,6.3-4.3c-0.5-0.2-0.9-0.5-1.2-0.8
		c-0.2-0.2-0.4-0.3-0.6-0.4c-2.3,2-4.1,3.3-4.1,3.3l0.6-3.8c-1.7-0.7-2.9-1.8-4.1-2.9c-0.3-0.2-0.5-0.5-0.8-0.7
		c-0.4-0.3-0.7-0.6-1.1-0.9c-0.4-0.3-0.8-0.6-1.2-1l0.6,1.6L47.5,70c0,0-0.6-0.4-1.5-1.1c0,0-3.6-6.5-5.6-23.5
		c-0.1,0.7-0.2,1.4-0.4,2c-0.2,0.7-0.6,1.2-0.9,1.6c0.7,5.7,1.8,12.8,3.3,16.9c-1-1-2-2.1-2.7-3.3c-1.4-2.4-3.5-7.7-4.8-11.4
		c-0.1,0.1-0.1,0.1-0.2,0.2c-0.5,0.5-1.2,1.2-2.3,1.6c-0.1,0-0.2,0.1-0.3,0.1l1.4,5.6c0,0,1,5,3.2,10.1c-2.2-0.8-6.5-2.3-8.6-2.7
		c-2.1-0.5-4.5-1.6-5.6-2.1c-0.1,0-0.2-0.1-0.3-0.1c-0.2,0-0.5,0.1-0.6,0.4c-0.2,0.4,0,0.9,0.4,1.1l6,2.3l10.2,4
		c0.3,0.6,2.7,2.4,3,3c4,6.1,2.5,15.2,2.5,15.2s2.9,1.5,6.6,1.5c2,0,4.1-0.4,6.2-1.7c0,0,0.2-12.5,5.6-17.3
		c-0.4-0.8-0.6-1.1-1.5-2.1C59.6,69.4,59.2,68.1,59.6,66.8z"/>
	<path class="st0" d="M59.8,43.9c0.2,0,0.4,0.2,0.5,0.3c0.4,0.6,1.1,1,1.8,1.2c0.5-0.6,1-1.3,1.5-1.9c-0.4-0.6-0.6-1.3-0.6-2.1
		c-0.8-0.2-1.6-0.4-2.4-0.8l-3,2.7c0.4,0.1,0.8,0.2,1.1,0.3C59.1,43.7,59.4,43.8,59.8,43.9z"/>
	<path class="st0" d="M39.9,41.3l6.3,3.2l1.1,3c0.1-0.3,0.2-0.5,0.3-0.7c0.5-0.9,1.4-1.7,2.5-2.2l-1.9-4.7c-0.2,0-0.4-0.1-0.5-0.1
		c-0.6-0.1-1.2-0.2-1.8-0.3c-0.5-0.1-1.1-0.2-1.7-0.3l1,2.9l-6.9-3C39.1,39.6,39.5,40.3,39.9,41.3z"/>
	<path class="st0" d="M54.6,39.9c-0.8,0.3-1.7,0.5-2.6,0.5l0,0c-0.2,0-0.4,0-0.6,0l-0.7,3.9c1.5-0.6,3.2-1,4.7-1.1l0.4-3.9
		C55.4,39.5,55,39.7,54.6,39.9z"/>
</g>
</svg>
