<?xml version="1.0" encoding="utf-8"?>
<!-- Generator: Adobe Illustrator 20.1.0, SVG Export Plug-In . SVG Version: 6.00 Build 0)  -->
<svg version="1.1" id="Layer_1" xmlns="http://www.w3.org/2000/svg" xmlns:xlink="http://www.w3.org/1999/xlink" x="0px" y="0px"
	 viewBox="0 0 100 125" style="enable-background:new 0 0 100 125;" xml:space="preserve">
<style type="text/css">
	.st0{fill:#FF7F0E;}
</style>
<path class="st0" d="M82.7,37.3c-4,0-7.6,1.4-9.9,3.5c-0.8-0.1-1.6-0.2-2.4-0.2c-5.5,0-9.9,3.1-9.9,6.9c0,2.7,2.2,5,5.3,6.1
	c-1.4,0.7-2.6,1.4-3.6,1.9c-2.3,1.4-4.7,3.7-6.7,5.7c-1.4-3-3.1-5.2-4.5-10.3c-2.2-8.3,4.8-17.2,8.2-23.2c1.3-0.3,2.5-0.7,3.7-1.3
	c1.9,1.1,4.2,1.7,6.7,1.7c6.4,0,11.6-4.1,11.6-9.2S76,9.7,69.6,9.7c-1,0-1.9,0.1-2.8,0.3C64.2,7.2,60,5.4,55.3,5.4S46.6,7.2,43.9,10
	c-0.9-0.2-1.8-0.3-2.8-0.3c-6.4,0-11.6,4.1-11.6,9.2s5.2,9.2,11.6,9.2c2.5,0,4.8-0.6,6.7-1.7c1.4,0.7,3,1.2,4.6,1.5
	c-2.7,3-6.9,7.6-11,12.8c-1.1,1.4-1.9,2.7-2.4,4c-0.9-0.5-1.7-0.9-2.6-1.3c-0.7-0.3-1.4-0.7-2.1-1c3-1.2,5-3.4,5-6
	c0-3.8-4.4-6.9-9.9-6.9c-0.8,0-1.6,0.1-2.4,0.2c-2.2-2.1-5.8-3.5-9.9-3.5C10.5,26.2,5,30,5,34.7s5.5,8.5,12.3,8.5
	c2.3,0,4.4-0.4,6.2-1.2c3,1.4,7.4,3.6,9.8,4.9c1.5,0.8,3.2,1.8,4.9,3c0.1,6.1,3.5,12.5,2,23.6c-0.7,4.5-7.1,14.5-10,18.9
	c-0.6,0.9,0.1,2.2,1.2,2.2h20c1.3,0,2.4-0.7,3-1.8c1.4-2.6,3.5-8.4,3.5-18.2c0-2.4-0.1-4.4-0.3-6.1c2-3.8,5-7.5,8-9.2
	c3.1-1.8,8.4-4.8,10.7-6.1l0,0c1.9,0.8,4.1,1.3,6.5,1.3c6.8,0,12.3-3.8,12.3-8.5S89.5,37.3,82.7,37.3z"/>
</svg>
