<?xml version="1.0" encoding="utf-8"?>
<!-- Generator: Adobe Illustrator 20.1.0, SVG Export Plug-In . SVG Version: 6.00 Build 0)  -->
<svg version="1.1" id="Layer_1" xmlns="http://www.w3.org/2000/svg" xmlns:xlink="http://www.w3.org/1999/xlink" x="0px" y="0px"
	 viewBox="0 0 100 125" style="enable-background:new 0 0 100 125;" xml:space="preserve">
<style type="text/css">
	.st0{fill:#9467BD;}
</style>
<path class="st0" d="M80.3,63.6c-8,2.7-23.4,2.6-27.1,2.5L53,59.7c4.7-0.6,5.4-3.3,5.4-3.3s0.7,2.7,5,2.1c3.8-0.5,4.5-3.1,4.5-3.1
	s2.1,1.4,4.8,0.2c2.4-1.1,3.2-3.4,3.2-3.4c4.6-2,4.2-5.9,4.2-5.9l-3,1.3c-6.9,3.2-20.6,4.8-24.2,5.2L52.6,46
	c3.5-1.1,4.4-4.3,4.4-4.3s1.3,1.9,4.6,0.3c2.9-1.4,2.7-3.7,2.7-3.7s2.1,0.6,3.9-1.1c1.7-1.5,1.6-3.6,1.6-3.6
	c3.2-2.8,1.8-5.8,1.8-5.8l-2.1,1.8c-4.3,4.1-13.4,8.5-17.1,10.2l-0.3-6.5c3-1.3,2.5-3.8,2.5-3.8s1.3,1.2,3.5-0.5
	c2-1.6,1.4-3.3,1.4-3.3s1.7,0.1,2.7-1.5c1-1.5,0.6-3,0.6-3c1.9-2.7,0.3-4.7,0.3-4.7l-1.3,1.7c-2.2,3.3-7.1,7.5-10,9.8l-0.3-8.5
	l0.3,0.1c0,0,1.5,0.5,2.9-0.6c1.3-1,0.9-2.1,0.9-2.1s1.1,0,1.8-1c0.6-0.9,0.4-2,0.4-2c1.3-1.7,0.2-3.1,0.2-3.1L57,12
	c-1.2,1.8-3.8,3.7-5.8,5l-0.1-3.6l-0.8-8.1c-0.1-0.3-0.5-0.3-0.6,0L49,13l-0.2,3.9c-2-1.3-4.6-3.2-5.8-4.9l-0.8-1.1
	c0,0-1,1.3,0.2,3.1c0,0-0.3,1,0.4,2s1.8,1,1.8,1s-0.3,1,0.9,2c1.4,1.2,2.9,0.6,2.9,0.6l0.3-0.1L48.3,28c-2.9-2.3-7.8-6.5-9.9-9.8
	l-1.3-1.7c0,0-1.6,2,0.3,4.7c0,0-0.4,1.6,0.6,3c1.1,1.6,2.7,1.5,2.7,1.5s-0.5,1.6,1.4,3.3c2.2,1.8,3.5,0.5,3.5,0.5s-0.3,2,2.4,4
	l-0.3,6.2c-3.6-1.7-12.8-6.1-17.1-10.2l-2.1-1.8c0,0-1.4,3,1.8,5.8c0,0,0,2.1,1.6,3.6c1.8,1.7,3.9,1.1,3.9,1.1s-0.2,2.2,2.7,3.7
	c3.3,1.6,4.6-0.3,4.6-0.3s0.8,3.2,4.4,4.3l-0.3,6.9c-3.2-0.3-17.3-1.9-24.4-5.2l-3-1.3c0,0-0.5,3.9,4.2,5.9c0,0,0.7,2.3,3.2,3.4
	c2.7,1.2,4.8-0.2,4.8-0.2s0.6,2.6,4.5,3.1c4.3,0.6,5-2.1,5-2.1s0.6,2.8,5.6,3.3l-0.3,6.4c-3.8,0.1-19.1,0.1-27.1-2.5l-3.5-1
	c0,0,0,4.3,5.3,5.8c0,0,1.1,2.4,3.9,3.3c3.1,1,5.2-0.8,5.2-0.8s1,2.7,5.3,2.8c4.7,0.1,5.2-2.9,5.2-2.9s0.9,2.6,5.4,2.9l-0.6,15.4
	l-2.1,3.7c-0.6,1,0.1,2.2,1.3,2.2h10c1.1,0,1.8-1.2,1.3-2.2l-2.1-4l-0.6-15.1c4.6-0.3,5.5-2.9,5.5-2.9s0.5,3,5.2,2.9
	c4.2-0.1,5.3-2.8,5.3-2.8s2.1,1.8,5.2,0.8c2.8-0.9,3.9-3.3,3.9-3.3c5.3-1.5,5.3-5.8,5.3-5.8L80.3,63.6z"/>
</svg>
