<?xml version="1.0" encoding="utf-8"?>
<!-- Generator: Adobe Illustrator 20.1.0, SVG Export Plug-In . SVG Version: 6.00 Build 0)  -->
<svg version="1.1" id="Layer_1" xmlns="http://www.w3.org/2000/svg" xmlns:xlink="http://www.w3.org/1999/xlink" x="0px" y="0px"
	 viewBox="0 0 100 125" style="enable-background:new 0 0 100 125;" xml:space="preserve">
<style type="text/css">
	.st0{fill:#B0BEC5;}
</style>
<path class="st0" d="M89.9,47.5c0-5.3-4-9.6-9.1-10.1c0.5-1.2,0.8-2.5,0.8-3.9c0-5.6-4.5-10.1-10.1-10.1c-1.2,0-2.4,0.2-3.5,0.6
	c-0.2-5.3-4.7-9.6-10.1-9.6c-3.6,0-6.8,1.9-8.6,4.8c-1.8-2.9-5-4.8-8.6-4.8c-5.6,0-10.1,4.5-10.1,10.1c0,0.4,0,0.8,0.1,1.1
	c-1.4-0.7-3-1.1-4.6-1.1c-5.6,0-10.1,4.5-10.1,10.1c0,2.2,0.7,4.3,2,6c-4.6,1-8,5-8,9.9c0,3.3,1.6,6.2,4,8c-0.9,1.5-1.4,3.3-1.4,5.1
	c0,5.6,4.5,10.1,10.1,10.1c0.8,0,1.6-0.1,2.3-0.3c1.8,2.9,5,4.9,8.7,4.9c2.7,0,5.2-1.1,7-2.8c0.9,1.9,2.3,3.4,4.1,4.5v16l-4.2,3.7
	c-2,1.7-0.8,4.7,1.6,4.7l0,0c0.7,0,1.4-0.3,1.9-0.8l2.8-2.8v1c0,1.5,1.2,2.6,2.6,2.6h0.8c1.5,0,2.6-1.2,2.6-2.6v-1l2.8,2.8
	c0.5,0.5,1.2,0.8,1.9,0.8c2.4,0,3.6-3,1.7-4.6l-4.2-3.7L55,79.9c1.8-1.1,3.2-2.8,4-4.8c1.9,2,4.5,3.3,7.5,3.3c4.9,0,9-3.5,9.9-8.1
	c0.8,0.2,1.7,0.3,2.6,0.3c5.6,0,10.1-4.5,10.1-10.1c0-2.3-0.8-4.4-2.1-6.1C88.9,52.7,89.9,50.2,89.9,47.5z M29.5,51.9h-4.1
	c-0.5,0-0.8-0.5-0.6-1l2-4.4c0.2-0.5,1-0.5,1.2,0l2,4.4C30.3,51.4,30,51.9,29.5,51.9z M40.9,65.6h-4c-0.5,0-0.8-0.5-0.6-1l2-4.4
	c0.2-0.5,1-0.5,1.2,0l2,4.4C41.8,65.1,41.4,65.6,40.9,65.6z M40.9,38.5h-4c-0.5,0-0.8-0.5-0.6-1l2-4.4c0.2-0.5,1-0.5,1.2,0l2,4.4
	C41.8,37.9,41.4,38.5,40.9,38.5z M51.9,51.9h-4c-0.5,0-0.8-0.5-0.6-1l2-4.4c0.2-0.5,1-0.5,1.2,0l2,4.4
	C52.8,51.4,52.4,51.9,51.9,51.9z M63.2,65.6h-4.1c-0.5,0-0.8-0.5-0.6-1l2-4.4c0.2-0.5,1-0.5,1.2,0l2,4.4
	C63.9,65.1,63.7,65.6,63.2,65.6z M63.2,38.5h-4.1c-0.5,0-0.8-0.5-0.6-1l2-4.4c0.2-0.5,1-0.5,1.2,0l2,4.4
	C63.9,37.9,63.7,38.5,63.2,38.5z M74.4,52.6h-4.1c-0.5,0-0.8-0.5-0.6-1l2-4.4c0.2-0.5,1-0.5,1.2,0l2,4.4
	C75.2,52.1,74.9,52.6,74.4,52.6z"/>
</svg>
