<?xml version="1.0" encoding="utf-8"?>
<!-- Generator: Adobe Illustrator 20.1.0, SVG Export Plug-In . SVG Version: 6.00 Build 0)  -->
<svg version="1.1" id="Layer_1" xmlns="http://www.w3.org/2000/svg" xmlns:xlink="http://www.w3.org/1999/xlink" x="0px" y="0px"
	 viewBox="0 0 100 125" style="enable-background:new 0 0 100 125;" xml:space="preserve">
<style type="text/css">
	.st0{fill:#8C564B;}
</style>
<path class="st0" d="M88.4,69.7c-2.1-5.1-6.1-11-13.6-11s-11.5,5.9-13.6,11c-0.1,0.2-0.1,0.3-0.2,0.5l-5.9,2.3l-0.5-15.4l6.8-7.8
	c2.1,0.4,4,0.6,5.6,0.7c-0.1,0.2-0.2,0.4-0.3,0.6c-1,2.5,0.8,5.3,3.5,5.3H82c2.7,0,4.6-2.7,3.5-5.3C84.1,47,81.3,43,76.1,43
	c-4,0-6.6,2.4-8.2,5.1c-2.1-0.2-3.8-0.6-4.8-0.9l6.4-7.3h4.7c2.4,0,4-2.4,3.1-4.6c-1.3-3.1-3.7-6.7-8.3-6.7c-4.6,0-7.1,3.6-8.3,6.7
	c-0.9,2.2,0.7,4.6,3.1,4.6h2.4L54.6,52.2l-0.9-25.6h0.1h11.7c2.7,0,4.5-2.7,3.5-5.2c-1.4-3.5-4.2-7.6-9.3-7.6
	c-4.8,0-7.6,3.6-9.1,6.9L47.9,15h1.6c2.1,0,3.5-2.1,2.7-4.1C51.2,8.2,49,5,45,5s-6.2,3.2-7.3,5.9c-0.8,1.9,0.6,4.1,2.7,4.1H46
	l4.5,12.1c0,0.1,0,0.2-0.1,0.3L50,40.7l-8.2-8.4h0.5c3,0,5-3,3.9-5.8c-1.6-3.9-4.6-8.4-10.4-8.4c-5.7,0-8.8,4.5-10.4,8.4
	c-1.1,2.8,0.9,5.8,3.9,5.8h8.8l11.7,13.3l-0.7,21.1l-11-11.5h1.4c3.9,0,6.6-3.9,5.1-7.5c-2.1-5.1-6.1-11-13.6-11s-11.5,5.9-13.6,11
	c-1.5,3.6,1.2,7.5,5.1,7.5h12.1l6.7,7.6c-1.7,0.1-4.5,0.1-7.5-0.7c-2.2-2-5-3.5-8.7-3.5c-7.5,0-11.5,5.9-13.6,11
	c-1.5,3.6,1.2,7.5,5.1,7.5h17c3.9,0,6.6-3.9,5.1-7.5c-0.7-1.7-1.6-3.6-2.8-5.2c2.1,0.4,4.5,0.6,7.5,0.7l5.6,6.3l-0.2,7l-0.3,0.7
	l0.3-0.1l-0.4,10.6l-1.7,3c-0.6,1,0.2,2.3,1.3,2.3h8.3c1.1,0,1.9-1.2,1.3-2.2l-1.7-3.3L55.4,76l5.8-2.6c0.7,2.2,2.7,3.9,5.2,3.9h17
	C87.2,77.3,89.9,73.3,88.4,69.7z"/>
</svg>
