<?xml version="1.0" encoding="utf-8"?>
<!-- Generator: Adobe Illustrator 20.1.0, SVG Export Plug-In . SVG Version: 6.00 Build 0)  -->
<svg version="1.1" id="Layer_1" xmlns="http://www.w3.org/2000/svg" xmlns:xlink="http://www.w3.org/1999/xlink" x="0px" y="0px"
	 viewBox="0 0 100 125" style="enable-background:new 0 0 100 125;" xml:space="preserve">
<style type="text/css">
	.st0{fill:#17BECF;}
</style>
<g>
	<path class="st0" d="M49.1,39.3c2.9,0,5.2-2.4,5.2-5.2s-2.4-5.2-5.2-5.2c-2.9,0-5.2,2.4-5.2,5.2S46.2,39.3,49.1,39.3z"/>
	<path class="st0" d="M55.8,35.7c-0.7,2.7-3,4.8-5.9,5.1c0,0,0,0,0,0.1c0,2.9,2.4,5.2,5.2,5.2c2.9,0,5.2-2.4,5.2-5.2
		C60.4,38.3,58.4,36.1,55.8,35.7z"/>
	<path class="st0" d="M48.2,40.9L48.2,40.9c-0.5-0.1-1-0.2-1.5-0.4c-0.8,1-1.9,1.8-3.1,2.2c-1.4,3.4-3,7.9-4.8,13.6
		c1.5,0,3.1,0.2,4.5,0.7c0.5,0.2,0.7,0.7,0.5,1.1c-0.1,0.4-0.5,0.6-0.8,0.6c-0.1,0-0.2,0-0.3,0c-1.3-0.5-3-0.6-4.4-0.6
		c-0.2,0.8-0.5,1.7-0.8,2.5c0,0.1,0,0.2-0.1,0.2c1.6,0,3.4,0.1,4.9,0.7c0.5,0.2,0.7,0.7,0.5,1.1c-0.1,0.4-0.5,0.6-0.8,0.6
		c-0.1,0-0.2,0-0.3,0c-1.4-0.5-3.2-0.6-4.7-0.6c-2.3,9.4-3.4,24.2-3.7,29.9c-0.1,1.3,1,2.4,2.3,2.4h11.5c1.3,0,2.3-1,2.3-2.3
		c0-1.9,0-5,0.2-9.4c-2.4-0.3-5-0.2-5-0.2c-0.5,0-0.9-0.3-0.9-0.8s0.3-0.9,0.8-0.9c0.1,0,2.7-0.2,5.2,0.1c0-1,0.1-2.1,0.2-3.2
		c-2.5-0.4-5.2-0.2-5.3-0.2c-0.5,0-0.9-0.3-0.9-0.8s0.3-0.9,0.8-0.9c0.2,0,2.9-0.2,5.5,0.2c0.3-4.2,0.6-9.1,1.2-14.8
		c0.3-3.5,1.1-9,1.9-14.3C50.3,46.7,48.2,44,48.2,40.9z"/>
	<path class="st0" d="M81.5,26c-9.7-4.7-18.5-1-23.8,2.6c1.2-2.2,2.8-4.5,4.9-6.6l-1.7-3.6c1.1,0,2.5,0.6,4,1.5
		c0.9-0.7,1.8-1.3,2.8-1.9L66,14.5c1.3,0,3.1,0.9,4.9,2.1c1.3-0.5,2.5-1,3.8-1.3l-1.9-4c1.6,0,4.2,1.5,6.2,3
		c7.2-1.1,12.7,0.3,12.7,0.3S83.7,1.4,67,7.3c-7.9,2.8-11.8,8.8-13.7,14.3c-1.9-9.1-7.9-18.4-24.8-16.4c0,0,10.7,4,17.3,16.9
		c-5.8-4-14.6-7.6-24.8-3.3C2.8,26.5,6,43.3,6,43.3s3.5-5.3,10.3-9.8c0.6-2.8,1.5-5.9,2.9-7.1l1.4,4.7c1.3-0.6,2.7-1.2,4.1-1.7
		c0.6-2.2,1.4-4.4,2.5-5.3l1.3,4.2c1.3-0.3,2.5-0.4,3.8-0.5c0.5-1.8,1.3-3.4,2.2-4.2l1.3,4.2c3,0.2,5.8,0.8,8.3,1.6
		c1.3-1.4,3.1-2.2,5.1-2.2c3.8,0,7,3.1,7,7l0,0c3.4,0.4,6,3.2,6.1,6.7c14.7,9,17,22.7,17,22.7c6.5-20.5-8-27.3-18.1-29.6
		c2.1-0.5,4.3-0.8,6.8-0.8l1.4-3.7c0.8,0.8,1.3,2.3,1.7,3.9c1.1,0.1,2.2,0.4,3.3,0.7l1.4-3.7c0.9,0.9,1.5,2.9,1.9,4.9
		c1.3,0.5,2.5,1.1,3.6,1.8l1.5-4.1c1.2,1.2,1.8,4,2.2,6.5c5.9,4.4,8.8,9.3,8.8,9.3S97.6,33.8,81.5,26z"/>
	<path class="st0" d="M41.3,31c-2.9,0-5.2,2.4-5.2,5.2c0,2.9,2.4,5.2,5.2,5.2c1.5,0,2.9-0.7,3.8-1.7c-1.8-1.3-3.1-3.4-3.1-5.8
		c0-1,0.2-2,0.6-2.8C42.3,31.1,41.8,31,41.3,31z"/>
</g>
</svg>
