<?xml version="1.0" encoding="utf-8"?>
<!-- Generator: Adobe Illustrator 20.1.0, SVG Export Plug-In . SVG Version: 6.00 Build 0)  -->
<svg version="1.1" id="Layer_1" xmlns="http://www.w3.org/2000/svg" xmlns:xlink="http://www.w3.org/1999/xlink" x="0px" y="0px"
	 viewBox="0 0 100 125" style="enable-background:new 0 0 100 125;" xml:space="preserve">
<style type="text/css">
	.st0{fill:#E377C2;}
</style>
<g>
	<path class="st0" d="M76.7,30.8c-1.5-4.2-3.9-6.9-7.4-6.7V24c-1-4.8-2.8-8.2-5.2-9.7c-1.3-0.8-2.8-1.1-4.3-0.8
		c-2.5,0.6-4.6,2.8-5.7,4.2c-0.2,0.2-0.4,0.5-0.6,0.9c-0.1,0.2-0.2,0.3-0.2,0.3c0,0.1-0.1,0.2-0.1,0.2c-1,2.2-2.1,7.1,0.3,16.8
		c2.7,11.2,0,13.3,0,13.3s-4.7-6.4-6.8-9.7c-2-3.3-1.9-9.2-1.7-12.2c0.1-1.2,1.4-7,1.8-8.5c0-0.1,0-0.1,0-0.2s0-0.3-0.1-0.4
		c-0.1-0.2-2.4-5.3-6.1-5.9c-1.8-0.3-3.5,0.4-5.2,2.2c-5.6,5.9-4.9,14.3-4.7,15.7c-0.3,0-0.7,0-1,0.1c-0.6,0-1.2,0.2-1.7,0.5
		c-0.8,0.4-1.4,0.9-2.1,1.7c-0.5,0.6-0.9,1.3-1.3,2c-1.3-0.6-5.2-2-8.6-0.4c-2.4,1.1-4,3.3-4.8,6.7C8.6,51,10.3,59.6,10.3,60
		c0.1,0.4,0.4,0.6,0.8,0.6h0.1c0.4-0.1,0.7-0.5,0.6-0.9c0-0.1-1.6-8.7,0.8-18.5c0.7-2.9,2.1-4.7,4-5.6c2.8-1.3,6.3-0.1,7.4,0.4
		c-0.3,0.6-0.5,1.3-0.8,2.1c-2.9,8.6-0.9,30.1-0.8,31c0,0.4,0.4,0.7,0.8,0.7c0,0,0,0,0.1,0c0.4,0,0.7-0.4,0.7-0.8
		c0-0.2-1.6-17.4-0.1-27c0.1-0.6,0.2-1.2,0.4-1.8c0.1-0.5,0.3-1.1,0.4-1.5c1.2-3.5,2.5-5.6,4-6.4c0.1,0,0.2-0.1,0.3-0.1
		c0.7-0.2,1.4-0.3,2.1-0.2c0.6,0.1,1.2,0.3,1.9,0.6c0.1,0,0.2,0,0.3,0c2.9,1.2,6,4.1,8.8,7.2c-2.2,1.1-5.9,4.2-7.1,12.7
		c-1.7,11.9,0,21,0.1,21.3c0.1,0.4,0.4,0.6,0.8,0.6H36c0.4-0.1,0.7-0.5,0.6-0.9c0-0.1-1.7-9.2-0.1-20.8c1.2-8.4,4.8-11,6.6-11.7
		c1.9,2.3,3.6,4.7,4.9,6.7c3.9,6.2-1.8,27.6-1.2,39.6c0.1,0.9,0.8,1.7,1.8,1.7H54c1,0,1.8-0.8,1.8-1.7c0.1-5.1,0.6-20.1,2.2-25.3
		c2-6.4,2.6-15.6,0.9-22.4v-0.1c0.8-2.2,2.2-5.8,4.2-8.7c1.7,0.9,4.7,3.6,5.9,11.6c1.7,11.6,0,25.3-0.1,25.5
		c-0.1,0.4,0.2,0.8,0.7,0.9h0.1c0.4,0,0.7-0.3,0.8-0.7c0-0.1,1.8-14,0.1-25.9c-1.2-8.3-4.4-11.4-6.4-12.6c1.4-1.7,3-3,4.9-3.1
		c4.4-0.3,6.8,5,8.1,12.1c0.6,4.7,1.3,14.2,0.3,32c0,0.4,0.3,0.8,0.7,0.8l0,0c0.4,0,0.7-0.3,0.8-0.7c1.4-26.6-0.6-34.8-1.1-36.4
		c-0.2-0.7-0.3-1.4-0.5-2c1.2-0.4,4.4-1,7.6,3c5.5,6.9,2.7,29.1,2.6,29.3c-0.1,0.4,0.2,0.8,0.7,0.9h0.1c0.4,0,0.7-0.3,0.8-0.7
		c0.1-0.9,3-23.1-3-30.5C82.3,29.6,78.3,30.2,76.7,30.8z M32.2,30.5c0-0.1,0-0.1,0-0.2s-1.1-8.8,4.3-14.6c1.3-1.4,2.6-2,3.8-1.8
		c2.3,0.4,4.1,3.4,4.7,4.5c-1.5,2.8-4.5,9.7-3.2,17.3C41.9,35.8,36.9,31.5,32.2,30.5z M57.6,34.6v0.5c-1.7-5.1-3.9-11-3.2-15
		c0.1-0.1,0.1-0.1,0.2-0.2c0,0,2.4-4,5.5-4.7c1.1-0.3,2.1-0.1,3.1,0.6c1.4,0.9,3.4,3.1,4.6,8.7C60.9,26,57.6,34.6,57.6,34.6z"/>
	<path class="st0" d="M41.8,48.3c0,0,0.6-0.6,0.2-2.4c-0.4-2-1.6-2-1.8-2c-0.2,0.2-0.8,1.3-0.1,2.7C40.9,48.1,41.8,48.3,41.8,48.3z"
		/>
	<path class="st0" d="M37.9,42.5c-0.1-0.1-0.9-1.1-2.7-0.2c-1.6,0.8-1.7,1.7-1.7,1.7s0.7,0.6,2.3,0.3C37.3,44,37.8,42.8,37.9,42.5z"
		/>
	<path class="st0" d="M37.8,49.6c-0.3,0.2-0.9,1.5-0.1,3.1c0.9,1.7,1.9,1.9,1.9,1.9s0.7-0.7,0.3-2.7C39.4,49.6,38,49.7,37.8,49.6z"
		/>
	<path class="st0" d="M31.9,50c-1.1,1.7-0.8,2.6-0.8,2.6s1.1,0.2,2.5-1c1.3-1.1,1.2-2.6,1-2.9C34.5,48.6,33.2,48.1,31.9,50z"/>
	<path class="st0" d="M36.7,57.4c-0.2,0.3-0.7,1.7,0.4,3.2c1.2,1.6,2.3,1.6,2.3,1.6s0.6-0.8-0.2-2.8C38.4,57.1,36.9,57.4,36.7,57.4z
		"/>
	<path class="st0" d="M30.5,61.6c0,0,1.1,0,2.4-1.5c1.2-1.4,0.8-2.9,0.6-3.2c-0.2,0-1.6-0.4-2.6,1.9C29.9,60.7,30.5,61.6,30.5,61.6z
		"/>
	<path class="st0" d="M37.3,68.4c1.6,1.7,2.9,1.7,2.9,1.7s0.6-1-0.6-3.3c-1.3-2.6-3-2.1-3.2-2.1C36.3,65,35.9,66.8,37.3,68.4z"/>
	<path class="st0" d="M32.6,68.5c1.2-1.8,0.6-3.6,0.3-3.9c-0.3,0-2-0.2-2.9,2.6c-0.8,2.5-0.1,3.4-0.1,3.4S31.2,70.5,32.6,68.5z"/>
	<path class="st0" d="M37.5,72.5c-0.2,0.4-0.5,2.4,1.3,4.1c1.9,1.8,3.4,1.6,3.4,1.6s0.5-1.2-0.9-3.6C39.6,71.7,37.8,72.5,37.5,72.5z
		"/>
	<path class="st0" d="M30.5,76.3c-0.7,2.8,0.2,3.8,0.2,3.8s1.5-0.2,2.8-2.6c1.2-2.1,0.3-4,0-4.3C33.2,73.2,31.3,73.1,30.5,76.3z"/>
	<path class="st0" d="M36.2,77c-0.3,0.3-2.4,1.5-0.9,5.4c1.3,3.4,3,3.8,3,3.8s1.4-1.3,1-4.6C39,78.4,36.8,77.1,36.2,77z"/>
	<path class="st0" d="M23.5,71.4c-0.2,0.2-1.9,1.2-0.7,4.3c1.1,2.7,2.3,3,2.3,3s1.1-1,0.8-3.7C25.8,72.5,24,71.5,23.5,71.4z"/>
	<path class="st0" d="M32.1,35.8c-1.3,1.4-1.1,2.5-1.1,2.5s0.9,0.4,2.7-0.7c2-1.2,1.5-2.5,1.5-2.7C34.8,34.7,33.3,34.5,32.1,35.8z"
		/>
	<path class="st0" d="M36,28.2c-1.5-1.4-2.5-1.2-2.5-1.2s-0.4,1,0.6,2.7c0.9,1.5,2.4,1.6,2.7,1.5C36.9,31,37.7,29.8,36,28.2z"/>
	<path class="st0" d="M28.6,32.9c-0.3,0.1-1.2,1-1,2.5c0.2,1.6,1,2.1,1,2.1s0.7-0.4,1-2.1C29.9,33.4,28.8,33,28.6,32.9z"/>
	<path class="st0" d="M24.4,31.7c1.5,0.2,2.4-0.7,2.5-1c-0.1-0.2-0.4-1.3-2.5-1.1c-1.8,0.2-2.2,1-2.2,1S22.7,31.4,24.4,31.7z"/>
	<path class="st0" d="M27.6,42.9c0,0,0.4-0.7-0.3-2.3c-0.9-1.9-2-1.5-2.2-1.5c-0.2,0.3-0.5,1.5,0.5,2.7
		C26.7,42.9,27.6,42.9,27.6,42.9z"/>
	<path class="st0" d="M20.8,40.3c1.4-0.6,1.6-1.9,1.6-2.2c-0.2-0.1-1.1-0.9-2.6,0.5c-1.4,1.2-1.3,2-1.3,2S19.3,41,20.8,40.3z"/>
	<path class="st0" d="M24,44.7c-0.2,0.3-0.6,1.7,0.4,3.1c1.2,1.5,2.2,1.5,2.2,1.5s0.5-0.8-0.2-2.7C25.6,44.4,24.2,44.7,24,44.7z"/>
	<path class="st0" d="M18.1,48.8c0,0,1.1,0,2.3-1.5c1.1-1.4,0.7-2.8,0.5-3.1c-0.2,0-1.6-0.3-2.5,1.8C17.5,48,18.1,48.8,18.1,48.8z"
		/>
	<path class="st0" d="M24.4,55.6c1.2,1.5,2.3,1.4,2.3,1.4s0.5-0.8-0.3-2.7c-0.9-2.1-2.3-1.8-2.5-1.8C23.6,52.8,23.3,54.3,24.4,55.6z
		"/>
	<path class="st0" d="M18.2,54.2c-0.7,1.9-0.2,2.7-0.2,2.7s1.1,0,2.2-1.5c1.1-1.4,0.6-2.8,0.4-3.1C20.4,52.2,19,52,18.2,54.2z"/>
	<path class="st0" d="M20,64c1.2-1.8,0.6-3.6,0.3-3.9c-0.3,0-2-0.2-2.9,2.6c-0.8,2.5-0.1,3.4-0.1,3.4S18.6,65.9,20,64z"/>
	<path class="st0" d="M24.8,60.1c-0.3,0.3-0.9,2.1,0.3,3.9c1.3,2,2.7,2.1,2.7,2.1s0.7-1-0.1-3.4C26.8,59.8,25.1,60.1,24.8,60.1z"/>
	<path class="st0" d="M17.9,71.6c-0.7,2.8,0.2,3.8,0.2,3.8s1.5-0.2,2.8-2.6c1.2-2.1,0.3-4,0-4.3C20.6,68.6,18.6,68.4,17.9,71.6z"/>
	<path class="st0" d="M15.8,37.5c-0.6,1.5-0.2,2.4-0.2,2.4s0.8,0.1,1.9-1.4c1.3-1.6,0.4-2.5,0.4-2.7C17.6,35.8,16.4,36.1,15.8,37.5z
		"/>
	<path class="st0" d="M14.9,32.7c1.2,1,2.4,0.6,2.7,0.4c0-0.2,0.3-1.4-1.6-2.1c-1.7-0.7-2.4-0.2-2.4-0.2S13.6,31.7,14.9,32.7z"/>
	<path class="st0" d="M14.8,45.9c0,0,0.8-0.6,0.6-2.6c-0.1-2.3-1.5-2.5-1.7-2.6c-0.3,0.2-1.1,1.4-0.6,3.1
		C13.8,45.5,14.8,45.9,14.8,45.9z"/>
	<path class="st0" d="M10.8,39.3c-0.2-0.1-1.4-0.8-2.9,1c-1.4,1.6-1.1,2.5-1.1,2.5s1,0.3,2.6-0.7C10.9,41.1,10.9,39.6,10.8,39.3z"/>
	<path class="st0" d="M7.9,52.2c1.2-1.8,0.6-3.4,0.3-3.7c-0.2,0-1.9-0.2-2.8,2.5c-0.8,2.4-0.1,3.3-0.1,3.3S6.6,54.1,7.9,52.2z"/>
	<path class="st0" d="M12.9,52.2c1.3,1.9,2.6,2,2.6,2s0.7-0.9-0.1-3.3c-0.9-2.7-2.6-2.4-2.8-2.5C12.3,48.8,11.7,50.4,12.9,52.2z"/>
	<path class="st0" d="M91.2,52.4c-0.3,0.3-0.9,2,0.3,3.7c1.3,1.9,2.6,2,2.6,2s0.7-0.9-0.1-3.3C93.1,52.2,91.4,52.5,91.2,52.4z"/>
	<path class="st0" d="M12.3,57.3c-0.2,0.4-0.5,2.2,1.2,3.8c1.8,1.6,3.1,1.4,3.1,1.4s0.5-1.1-0.9-3.3C14.2,56.6,12.6,57.3,12.3,57.3z
		"/>
	<path class="st0" d="M5.9,60.8c-0.6,2.6,0.2,3.5,0.2,3.5s1.4-0.2,2.6-2.4c1.1-2,0.3-3.7,0-4C8.4,57.9,6.6,57.8,5.9,60.8z"/>
	<path class="st0" d="M11.4,62c-0.2,0.2-1.9,1.2-0.7,4.3c1.1,2.7,2.4,3,2.4,3s1.1-1.1,0.8-3.7C13.7,63.1,11.9,62,11.4,62z"/>
	<path class="st0" d="M70,31.4c-1.9-0.9-2.5,0.1-2.7,0.3c0,0.3,0.6,1.5,2.1,1.7c1.6,0.3,2.3-0.4,2.3-0.4S71.7,32.2,70,31.4z"/>
	<path class="st0" d="M64.8,32.7c-0.2,0-1.4,0.1-1.7,2.1c-0.3,1.8,0.3,2.4,0.3,2.4s0.9-0.2,1.6-1.7C65.6,34,65,32.9,64.8,32.7z"/>
	<path class="st0" d="M74.4,41.6c0,0,0.2-0.9-1.1-2.5c-1.5-1.8-2.7-1.1-2.9-1c-0.1,0.3-0.1,1.8,1.4,2.8
		C73.4,41.9,74.4,41.6,74.4,41.6z"/>
	<path class="st0" d="M67.3,38.7c-0.2,0.1-1.6,0.2-1.8,2.5c-0.1,2.1,0.6,2.7,0.6,2.7s1-0.3,1.7-2.1C68.4,40.2,67.6,38.9,67.3,38.7z"
		/>
	<path class="st0" d="M71.9,46.9c-0.2,0.3-0.5,1.8,0.7,3.2c1.3,1.5,2.4,1.4,2.4,1.4s0.5-0.9-0.4-2.8C73.5,46.5,72.1,46.9,71.9,46.9z
		"/>
	<path class="st0" d="M83.7,49.7c0,0,0.5-0.9-0.4-2.8c-1.1-2.2-2.5-1.8-2.7-1.8c-0.2,0.3-0.5,1.8,0.7,3.2
		C82.6,49.7,83.7,49.7,83.7,49.7z"/>
	<path class="st0" d="M66.1,48.8c-0.7,2-0.1,2.8-0.1,2.8s1.1-0.1,2.2-1.7c1-1.5,0.5-2.9,0.3-3.2C68.3,46.7,66.9,46.5,66.1,48.8z"/>
	<path class="st0" d="M72.2,55c-0.2,0.4-0.7,2.1,0.7,3.8c1.5,1.8,2.8,1.8,2.8,1.8s0.6-1-0.4-3.4C74.1,54.6,72.4,55,72.2,55z"/>
	<path class="st0" d="M81,55c-0.2,0.4-0.7,2.1,0.7,3.8c1.5,1.8,2.8,1.8,2.8,1.8s0.6-1-0.4-3.4C82.9,54.5,81.2,55,81,55z"/>
	<path class="st0" d="M65.3,60.7c0,0,1.4,0,2.8-2c1.3-1.8,0.8-3.5,0.5-3.9c-0.3,0-2-0.3-3,2.4C64.6,59.7,65.3,60.7,65.3,60.7z"/>
	<path class="st0" d="M72,66c-0.3,0.3-1.1,2.2,0.1,4.3c1.4,2.2,2.8,2.4,2.8,2.4s0.9-1,0.1-3.7C74.2,65.8,72.3,66,72,66z"/>
	<path class="st0" d="M81,66.6c-0.3,0.3-1.1,2.2,0.1,4.3c1.4,2.2,2.8,2.4,2.8,2.4s0.9-1,0.1-3.7C83.2,66.5,81.3,66.7,81,66.6z"/>
	<path class="st0" d="M67.9,65.5c-0.3,0-2.1-0.7-3.7,2.1c-1.4,2.5-0.8,3.7-0.8,3.7s1.5,0.2,3.4-1.7C68.5,68,68.2,65.9,67.9,65.5z"/>
	<path class="st0" d="M69.4,70c-0.3,0.2-2.7,0.8-2.3,4.9c0.3,3.6,1.8,4.4,1.8,4.4s1.7-0.9,2.3-4.2C71.8,72.1,70,70.3,69.4,70z"/>
	<path class="st0" d="M78.5,73.2c-0.3,0.2-2.7,0.8-2.3,4.9c0.3,3.6,1.8,4.4,1.8,4.4s1.7-0.9,2.3-4.2C80.8,75.3,79,73.4,78.5,73.2z"
		/>
	<path class="st0" d="M83,30.2c1.8-0.6,2.2-1.6,2.2-1.6s-0.6-0.8-2.6-0.7c-2.3,0.1-2.5,1.5-2.6,1.7C80.1,29.8,81.3,30.7,83,30.2z"/>
	<path class="st0" d="M81.8,36.6c0,0,0.4-1-0.6-2.6c-0.9-1.5-2.4-1.6-2.7-1.5c-0.1,0.2-0.8,1.4,0.9,2.9
		C80.9,36.8,81.8,36.6,81.8,36.6z"/>
	<path class="st0" d="M92.6,38c0,0,0-1-1.8-2.1c-2-1.3-2.9-0.2-3.1-0.1c0,0.3,0.5,1.7,2.1,2.2C91.7,38.6,92.6,38,92.6,38z"/>
	<path class="st0" d="M92.3,46.7c1.8,0.5,2.7-0.1,2.7-0.1s0-1-1.8-2.1c-2-1.3-2.9-0.2-3.1-0.1C90.1,44.8,90.6,46.2,92.3,46.7z"/>
	<path class="st0" d="M84.9,37.3c-0.2,0.1-1.5,0.6-0.9,2.9c0.5,2,1.3,2.4,1.3,2.4s0.9-0.6,1-2.5C86.4,38.4,85.2,37.5,84.9,37.3z"/>
	<path class="st0" d="M90.6,63.6c-0.3,0.3-0.9,2.1,0.4,3.9c1.4,2,2.8,2.1,2.8,2.1s0.7-1-0.1-3.5C92.6,63.4,90.8,63.7,90.6,63.6z"/>
	<path class="st0" d="M87.9,66.9c-0.2,0.2-2.1,0.8-1.6,4.1c0.5,2.9,1.7,3.5,1.7,3.5s1.3-0.8,1.6-3.5C89.9,68.4,88.4,67,87.9,66.9z"
		/>
	<path class="st0" d="M53.5,17.6c0.3-0.1,1.5-1,1.4-2.8c-0.1-1.9-1-2.5-1-2.5s-0.9,0.3-1.4,2.4C52,17,53.3,17.5,53.5,17.6z"/>
	<path class="st0" d="M58,17.6c-1.7,0.5-2.2,1.9-2.2,2.2c0.2,0.1,1.1,1.2,3.1-0.1c1.7-1.1,1.8-2.1,1.8-2.1S59.9,17,58,17.6z"/>
	<path class="st0" d="M68.9,17.4c1.9,0.2,2.6-0.6,2.6-0.6s-0.2-0.9-2.2-1.7c-2.2-0.8-2.9,0.4-3,0.5C66.4,16,67.1,17.2,68.9,17.4z"/>
	<path class="st0" d="M65.8,20.1c-0.3-1.7-1.6-2.4-1.9-2.4c-0.1,0.2-1.3,0.9-0.3,3.1c0.9,1.9,1.8,2,1.8,2S66,22,65.8,20.1z"/>
	<path class="st0" d="M43.9,17.5c-0.1-0.3-1.1-1.2-2.6-0.8c-1.6,0.3-2.1,1.2-2.1,1.2s0.4,0.7,2.2,0.9C43.5,18.8,43.8,17.6,43.9,17.5
		z"/>
	<path class="st0" d="M45.9,15.6c0.1-0.1,1.3-0.5,0.9-2.5c-0.4-1.8-1.1-2.1-1.1-2.1s-0.8,0.5-0.9,2.2C44.7,14.7,45.7,15.5,45.9,15.6
		z"/>
	<path class="st0" d="M35.4,18.3C35,20.2,35.7,21,35.7,21s0.9-0.1,1.9-1.9c1.1-2.1,0-2.9-0.1-3.1C37.2,16,35.8,16.6,35.4,18.3z"/>
	<path class="st0" d="M33.1,14.9c1.8,0,2.6-1.2,2.7-1.6c-0.1-0.2-0.8-1.4-3-0.7c-2,0.6-2.3,1.5-2.3,1.5S31.2,14.9,33.1,14.9z"/>
	<path class="st0" d="M29.5,24c1.4-1.1,1.4-2.7,1.2-3c-0.2,0-1.5-0.7-2.9,1.3C26.5,24,26.9,25,26.9,25S28,25.3,29.5,24z"/>
</g>
</svg>
