<svg xmlns="http://www.w3.org/2000/svg" xmlns:xlink="http://www.w3.org/1999/xlink" version="1.1" x="0px" y="0px" viewBox="0 0 100 125" enable-background="new 0 0 100 100" xml:space="preserve"><g><path d="M95.472,22.342c-0.002-0.012-0.001-0.024-0.004-0.037c-0.002-0.007-0.003-0.014-0.005-0.021   c-0.007-0.027-0.021-0.052-0.031-0.079c-0.02-0.054-0.038-0.109-0.067-0.159c-0.011-0.019-0.025-0.034-0.037-0.052   c-0.015-0.021-0.03-0.041-0.046-0.061c-0.024-0.031-0.045-0.063-0.072-0.091c-0.024-0.024-0.055-0.043-0.081-0.065   c-0.035-0.028-0.065-0.061-0.104-0.084L72.776,7.965c-0.322-0.198-0.729-0.198-1.051,0L49.997,21.369L28.274,7.965   c-0.321-0.198-0.729-0.198-1.05,0L4.977,21.692c-0.295,0.182-0.475,0.504-0.475,0.851v54.914c0,0.347,0.18,0.669,0.475,0.851   l22.248,13.727c0.006,0.004,0.013,0.005,0.019,0.008c0.007,0.005,0.012,0.011,0.019,0.015c0.048,0.027,0.1,0.042,0.15,0.061   c0.022,0.008,0.044,0.022,0.066,0.029c0.004,0.001,0.008,0.001,0.012,0.002c0.081,0.021,0.163,0.032,0.246,0.033   c0.004,0,0.008,0.002,0.012,0.002h0.001l0,0c0.041,0,0.081-0.011,0.122-0.016c0.042-0.005,0.085-0.005,0.126-0.016   c0.004-0.001,0.008-0.004,0.013-0.005c0.025-0.007,0.049-0.021,0.073-0.029c0.051-0.018,0.103-0.034,0.15-0.061   c0.001,0,0.002,0,0.003-0.001c0.007-0.004,0.013-0.01,0.02-0.015c0.006-0.003,0.013-0.004,0.019-0.008l66.749-41.181   c0.295-0.182,0.475-0.504,0.475-0.851V22.543C95.498,22.475,95.485,22.408,95.472,22.342z M28.749,36.834l20.248-12.499v25.109   L28.749,61.939V36.834z M50.997,50.562l20.254-12.498V63.17L50.997,75.666V50.562z M28.749,64.288l20.248-12.493v25.104   L28.749,89.392V64.288z M93.498,49.445L73.251,61.937V36.83l20.247-12.494V49.445z"/></g><text x="0" y="115" fill="#000000" font-size="5px" font-weight="bold" font-family="'Helvetica Neue', Helvetica, Arial-Unicode, Arial, Sans-serif">Created by Emily L</text><text x="0" y="120" fill="#000000" font-size="5px" font-weight="bold" font-family="'Helvetica Neue', Helvetica, Arial-Unicode, Arial, Sans-serif">from the Noun Project</text></svg>