<?xml version="1.0" encoding="utf-8"?>
<!-- Generator: Adobe Illustrator 20.1.0, SVG Export Plug-In . SVG Version: 6.00 Build 0)  -->
<svg version="1.1" id="Layer_1" xmlns="http://www.w3.org/2000/svg" xmlns:xlink="http://www.w3.org/1999/xlink" x="0px" y="0px"
	 viewBox="0 0 100.8 100.8" style="enable-background:new 0 0 100.8 100.8;" xml:space="preserve">
<style type="text/css">
	.st0{fill:#90A4AE;}
</style>
<g>
	<path class="st0" d="M95.9,22.7C95.9,22.7,95.9,22.7,95.9,22.7C95.9,22.7,95.9,22.7,95.9,22.7c0-0.1,0-0.1,0-0.1
		c0-0.1,0-0.1-0.1-0.2c0,0,0,0,0-0.1c0,0,0,0,0-0.1c0,0,0-0.1-0.1-0.1c0,0-0.1,0-0.1-0.1c0,0-0.1-0.1-0.1-0.1L73.2,8.4
		c-0.3-0.2-0.7-0.2-1.1,0L50.4,21.8L28.7,8.4c-0.3-0.2-0.7-0.2-1,0L5.4,22.1c-0.3,0.2-0.5,0.5-0.5,0.9v54.9c0,0.3,0.2,0.7,0.5,0.9
		l22.2,13.7c0,0,0,0,0,0c0,0,0,0,0,0c0,0,0.1,0,0.1,0.1c0,0,0,0,0.1,0c0,0,0,0,0,0c0.1,0,0.2,0,0.2,0c0,0,0,0,0,0h0l0,0
		c0,0,0.1,0,0.1,0c0,0,0.1,0,0.1,0c0,0,0,0,0,0c0,0,0,0,0.1,0c0.1,0,0.1,0,0.1-0.1c0,0,0,0,0,0c0,0,0,0,0,0c0,0,0,0,0,0l66.7-41.2
		c0.3-0.2,0.5-0.5,0.5-0.9V22.9C95.9,22.9,95.9,22.8,95.9,22.7z M29.1,37.2l20.2-12.5v25.1L29.1,62.3V37.2z M51.4,51l20.3-12.5v25.1
		L51.4,76.1V51z M29.1,64.7l20.2-12.5v25.1L29.1,89.8V64.7z M93.9,49.8L73.7,62.3V37.2l20.2-12.5V49.8z"/>
</g>
</svg>
