<svg xmlns="http://www.w3.org/2000/svg" viewBox="0 0 91 84.29"><defs><style>.cls-1{fill:#80cbc4;}</style></defs><title>Asset 1</title><g id="Layer_2" data-name="Layer 2"><g id="Layer_1-2" data-name="Layer 1"><g id="Layer_2-2" data-name="Layer 2"><g id="Layer_1-2-2" data-name="Layer 1-2"><path class="cls-1" d="M91,14.53h0v-.08a1,1,0,0,0-.07-.16v-.11L90.71,14h-.08l-.1-.08L68.27.15a1,1,0,0,0-1.05,0L45.5,13.55,23.77.15a1,1,0,0,0-1,0L.47,13.88a1,1,0,0,0-.47.85V69.64a1,1,0,0,0,.47.85L22.72,84.22h0l.15.06h.07a1,1,0,0,0,.25,0h.32l.15-.06h0L90.52,43a1,1,0,0,0,.47-.85V14.73A1.23,1.23,0,0,0,91,14.53ZM24.25,29,44.5,16.52V41.63L24.25,54.12ZM46.5,42.75l20.25-12.5v25.1L46.5,67.85ZM24.25,56.47,44.5,44V69.1L24.25,81.58ZM89,41.63,68.75,54.12V29L89,16.52Z"/></g></g></g></g></svg>