<svg xmlns="http://www.w3.org/2000/svg" viewBox="0 0 91 84.37"><defs><style>.cls-1{fill:#90a4ae;}</style></defs><title>Asset 2</title><g id="Layer_2" data-name="Layer 2"><g id="Layer_1-2" data-name="Layer 1"><path class="cls-1" d="M91,14.53s0,0,0,0v0l0-.08a1,1,0,0,0-.07-.16l0-.05,0-.06L90.71,14,90.63,14l-.1-.08L68.27.15a1,1,0,0,0-1.05,0L45.5,13.55,23.77.15a1,1,0,0,0-1,0L.47,13.88a1,1,0,0,0-.47.85V69.64a1,1,0,0,0,.47.85L22.72,84.22h0l.15.06.07,0h0a1,1,0,0,0,.25,0h0l.12,0,.13,0h0l.07,0,.15-.06h0L90.52,43a1,1,0,0,0,.47-.85V14.73A1.23,1.23,0,0,0,91,14.53ZM24.25,29,44.5,16.52V41.63L24.25,54.12ZM46.5,42.75l20.25-12.5V55.35L46.5,67.85ZM24.25,56.47,44.5,44v25.1L24.25,81.58ZM89,41.63,68.75,54.12V29L89,16.52Z"/></g></g></svg>