<?xml version="1.0" encoding="utf-8"?>
<!-- Generator: Adobe Illustrator 20.1.0, SVG Export Plug-In . SVG Version: 6.00 Build 0)  -->
<svg version="1.1" id="Layer_1" xmlns="http://www.w3.org/2000/svg" xmlns:xlink="http://www.w3.org/1999/xlink" x="0px" y="0px"
	 viewBox="0 0 100 125" style="enable-background:new 0 0 100 125;" xml:space="preserve">
<style type="text/css">
	.st0{fill:#90A4AE;}
</style>
<title>Artboard 13</title>
<path class="st0" d="M28.8,65c-1.3-1.3-1.3-3.4,0-4.8c1.3-1.3,3.4-1.3,4.8,0l0.4,0.4l3.7-3.7c1.4-1.2,3.5-1.1,4.8,0.2
	c1.2,1.3,1.2,3.2,0,4.5l-6.1,6.1c-1.3,1.3-3.4,1.3-4.8,0L28.8,65z M31.6,52.6c1.3,1.3,3.4,1.3,4.8,0l6.1-6.1
	c1.2-1.4,1.1-3.5-0.2-4.8c-1.3-1.2-3.2-1.2-4.5,0L34,45.5l-0.4-0.4c-1.3-1.3-3.4-1.3-4.8,0c-1.3,1.3-1.3,3.4,0,4.8L31.6,52.6z
	 M50.6,65.6h18.3c1.8,0,3.3-1.5,3.3-3.3s-1.5-3.3-3.3-3.3H50.6c-1.8,0-3.3,1.5-3.3,3.3S48.8,65.6,50.6,65.6z M50.6,50.5h18.3
	c1.8,0,3.3-1.5,3.3-3.3s-1.5-3.3-3.3-3.3H50.6c-1.8,0-3.3,1.5-3.3,3.3S48.8,50.5,50.6,50.5z M50.6,80.8h18.3c1.8,0,3.3-1.5,3.3-3.3
	c0-1.8-1.5-3.3-3.3-3.3H50.6c-1.8,0-3.3,1.5-3.3,3.3C47.3,79.4,48.8,80.8,50.6,80.8z M37.8,72.1L34,75.9l-0.4-0.4
	c-1.2-1.4-3.4-1.5-4.8-0.2c-1.4,1.2-1.5,3.4-0.2,4.8c0.1,0.1,0.2,0.2,0.2,0.2l2.8,2.8c1.3,1.3,3.4,1.3,4.8,0l6.1-6.1
	c1.2-1.4,1.1-3.5-0.2-4.8C41,70.9,39,70.9,37.8,72.1z M24.7,99c-6.3,0-11.4-5.1-11.5-11.4V30.9c0-6.3,5.1-11.4,11.5-11.5h8.2v-2.7
	c0-2.1,1.7-3.9,3.9-3.9l0,0h1.4c0.2-6.6,5.7-11.8,12.3-11.6C56.7,1.5,61.8,6.6,62,12.9h1.4c2.1,0,3.9,1.7,3.9,3.9v2.7h8.2
	c6.3,0,11.4,5.1,11.4,11.5v56.7c0,6.3-5.1,11.4-11.4,11.4H24.7z M46.2,12.9c0,2.1,1.8,3.8,3.9,3.8c2.1,0,3.8-1.8,3.8-3.9
	c0-2.1-1.7-3.8-3.8-3.8C47.9,9,46.1,10.7,46.2,12.9C46.1,12.9,46.1,12.9,46.2,12.9z M24.7,89.9h50.6c1.3,0,2.4-1.1,2.4-2.4V30.9
	c0-1.3-1.1-2.4-2.4-2.4h-8.2v3.1c0,2.1-1.7,3.9-3.9,3.9l0,0H36.7c-2.1,0-3.9-1.7-3.9-3.9v0v-3.1h-8.1c-1.3,0-2.4,1.1-2.4,2.4v56.7
	C22.3,88.9,23.4,89.9,24.7,89.9z"/>
</svg>
