<svg xmlns="http://www.w3.org/2000/svg" viewBox="0 0 73.54 97.71"><defs><style>.cls-1{fill:#90a4ae;}</style></defs><title>Asset 1</title><g id="Layer_2" data-name="Layer 2"><g id="Layer_1-2" data-name="Layer 1"><path class="cls-1" d="M15.59,63.71a3.37,3.37,0,0,1,0-4.76,3.42,3.42,0,0,1,4.76,0l.43.43,3.74-3.67a3.37,3.37,0,0,1,4.76,4.76L23.15,66.6a3.37,3.37,0,0,1-4.76,0ZM18.4,51.34a3.37,3.37,0,0,0,4.76,0l6.13-6.12a3.37,3.37,0,0,0-4.76-4.76l-3.76,3.77-.43-.43a3.42,3.42,0,0,0-4.76,0,3.37,3.37,0,0,0,0,4.76Zm18.94,13H55.68a3.26,3.26,0,1,0,0-6.51H37.34a3.26,3.26,0,0,0,0,6.51Zm0-15.18H55.68a3.26,3.26,0,1,0,0-6.51H37.34a3.26,3.26,0,1,0,0,6.51Zm0,30.36H55.68a3.26,3.26,0,1,0,0-6.51H37.34a3.26,3.26,0,1,0,0,6.51Zm-12.81-8.7-3.76,3.77-.43-.43a3.37,3.37,0,1,0-5,4.52l.24.24,2.82,2.79a3.37,3.37,0,0,0,4.76,0l6.13-6.13a3.37,3.37,0,0,0-4.76-4.76ZM11.45,97.71A11.46,11.46,0,0,1,0,86.26V29.58A11.46,11.46,0,0,1,11.45,18.13h8.16V15.46a3.86,3.86,0,0,1,3.86-3.86h1.36a11.95,11.95,0,0,1,23.89,0h1.36a3.86,3.86,0,0,1,3.86,3.86v2.67H62.1A11.46,11.46,0,0,1,73.54,29.58V86.26A11.46,11.46,0,0,1,62.09,97.71ZM32.92,11.6a3.85,3.85,0,1,0,3.85-3.89,3.85,3.85,0,0,0-3.85,3.89S32.92,11.59,32.92,11.6ZM11.45,88.65H62.09a2.39,2.39,0,0,0,2.39-2.39V29.58a2.39,2.39,0,0,0-2.39-2.39H53.94v3.1a3.86,3.86,0,0,1-3.86,3.86H23.46a3.86,3.86,0,0,1-3.86-3.86h0v-3.1H11.45a2.39,2.39,0,0,0-2.39,2.39V86.26A2.39,2.39,0,0,0,11.45,88.65Z"/></g></g></svg>