<svg xmlns="http://www.w3.org/2000/svg" data-name="Layer 1" viewBox="0 0 100 125" x="0px" y="0px"><title>Artboard 13</title><path d="M28.82,65a3.37,3.37,0,0,1,0-4.76,3.42,3.42,0,0,1,4.76,0l.43.43L37.75,57a3.37,3.37,0,0,1,4.76,4.76l-6.13,6.13a3.37,3.37,0,0,1-4.76,0Zm2.81-12.37a3.37,3.37,0,0,0,4.76,0l6.13-6.12a3.37,3.37,0,0,0-4.76-4.76L34,45.52l-.43-.43a3.42,3.42,0,0,0-4.76,0,3.37,3.37,0,0,0,0,4.76Zm18.94,13H68.91a3.25,3.25,0,1,0,0-6.51H50.57a3.25,3.25,0,1,0,0,6.51Zm0-15.18H68.91a3.25,3.25,0,1,0,0-6.51H50.57a3.25,3.25,0,0,0,0,6.51Zm0,30.36H68.91a3.25,3.25,0,1,0,0-6.51H50.57a3.25,3.25,0,1,0,0,6.51Zm-12.81-8.7L34,75.88l-.43-.43a3.37,3.37,0,1,0-4.76,4.76L31.63,83a3.37,3.37,0,0,0,4.76,0l6.13-6.13a3.37,3.37,0,0,0-4.76-4.76ZM24.68,99A11.46,11.46,0,0,1,13.23,87.55V30.87A11.46,11.46,0,0,1,24.68,19.42h8.16V16.75a3.86,3.86,0,0,1,3.86-3.86h1.36a11.95,11.95,0,0,1,23.89,0h1.36a3.86,3.86,0,0,1,3.86,3.86v2.67h8.16A11.46,11.46,0,0,1,86.77,30.87V87.55A11.46,11.46,0,0,1,75.32,99ZM46.15,12.89A3.85,3.85,0,1,0,50,9,3.85,3.85,0,0,0,46.15,12.89ZM24.68,89.94H75.32a2.39,2.39,0,0,0,2.39-2.39V30.87a2.39,2.39,0,0,0-2.39-2.39H67.17v3.1a3.86,3.86,0,0,1-3.86,3.86H36.69a3.86,3.86,0,0,1-3.86-3.86v-3.1H24.68a2.39,2.39,0,0,0-2.39,2.39V87.55A2.39,2.39,0,0,0,24.68,89.94Z"/><text x="0" y="115" fill="#000000" font-size="5px" font-weight="bold" font-family="'Helvetica Neue', Helvetica, Arial-Unicode, Arial, Sans-serif">Created by Gregor Cresnar</text><text x="0" y="120" fill="#000000" font-size="5px" font-weight="bold" font-family="'Helvetica Neue', Helvetica, Arial-Unicode, Arial, Sans-serif">from the Noun Project</text></svg>