<svg id="Layer_1" data-name="Layer 1" xmlns="http://www.w3.org/2000/svg" viewBox="0 0 764.9 678"><defs><style>.cls-1{fill:none;stroke:#000;stroke-miterlimit:10;stroke-width:5px;}</style></defs><title>crowd</title><path d="M348,140a20,20,0,1,0-20-20A20.06,20.06,0,0,0,348,140Zm14,5.6H334a20.06,20.06,0,0,0-20,20V196h.2a4.45,4.45,0,0,0,4.4,4h58.7a4.45,4.45,0,0,0,4.4-4h.2V165.6A19.91,19.91,0,0,0,362,145.6Z" transform="translate(-314 -69)"/><line class="cls-1" x1="88" y1="149" x2="253.27" y2="297.06"/><polygon points="231.21 310.76 280 321 264.48 273.62 231.21 310.76"/><path d="M648,425a20,20,0,1,0-20-20A20.06,20.06,0,0,0,648,425Zm14,5.6H634a20.06,20.06,0,0,0-20,20V481h.2a4.45,4.45,0,0,0,4.4,4h58.7a4.45,4.45,0,0,0,4.4-4h.2V450.6A19.91,19.91,0,0,0,662,430.6Z" transform="translate(-314 -69)"/><line class="cls-1" x1="667.5" y1="378.5" x2="440.37" y2="382.82"/><polygon points="447.19 357.75 404.5 383.5 448.14 407.61 447.19 357.75"/><path d="M835,687a20,20,0,1,0-20-20A20.06,20.06,0,0,0,835,687Zm14,5.6H821a20.06,20.06,0,0,0-20,20V743h.2a4.45,4.45,0,0,0,4.4,4h58.7a4.45,4.45,0,0,0,4.4-4h.2V712.6A19.91,19.91,0,0,0,849,692.6Z" transform="translate(-314 -69)"/><line class="cls-1" x1="105.5" y1="536.5" x2="241.48" y2="437.6"/><polygon points="250.25 462.06 270.5 416.5 220.92 421.73 250.25 462.06"/><path d="M373,606a20,20,0,1,0-20-20A20.06,20.06,0,0,0,373,606Zm14,5.6H359a20.06,20.06,0,0,0-20,20V662h.2a4.45,4.45,0,0,0,4.4,4h58.7a4.45,4.45,0,0,0,4.4-4h.2V631.6A19.91,19.91,0,0,0,387,611.6Z" transform="translate(-314 -69)"/><line class="cls-1" x1="472.5" y1="597.5" x2="387.54" y2="471.27"/><polygon points="412.29 463.4 367.5 441.5 370.93 491.24 412.29 463.4"/><path d="M852,109a20,20,0,1,0-20-20A20.06,20.06,0,0,0,852,109Zm14,5.6H838a20.06,20.06,0,0,0-20,20V165h.2a4.45,4.45,0,0,0,4.4,4h58.7a4.45,4.45,0,0,0,4.4-4h.2V134.6A19.91,19.91,0,0,0,866,114.6Z" transform="translate(-314 -69)"/><line class="cls-1" x1="504.5" y1="124.5" x2="405.8" y2="279.25"/><polygon points="388.7 259.69 386.5 309.5 430.74 286.51 388.7 259.69"/><path d="M1045,425a20,20,0,1,0-20-20A20.06,20.06,0,0,0,1045,425Zm14,5.6h-28a20.06,20.06,0,0,0-20,20V481h.2a4.45,4.45,0,0,0,4.4,4h58.7a4.45,4.45,0,0,0,4.4-4h.2V450.6A19.91,19.91,0,0,0,1059,430.6Z" transform="translate(-314 -69)"/></svg>