<svg xmlns="http://www.w3.org/2000/svg" viewBox="0 0 1247.1 59.36"><defs><style>.cls-1{fill:none;stroke:#231f20;}.cls-1,.cls-3{stroke-miterlimit:10;}.cls-2{font-size:18px;fill:#231f20;font-family:HelveticaNeue, Helvetica Neue;}.cls-3{fill:#b0c4dd;stroke:#4783b5;}.cls-4{fill:#b39cc0;}.cls-5{fill:#c8e6d1;}.cls-6{fill:#badbdb;}</style></defs><title>Asset 6</title><g id="Layer_2" data-name="Layer 2"><g id="Layer_1-2" data-name="Layer 1"><rect id="_Rectangle_" data-name="&lt;Rectangle&gt;" class="cls-1" x="0.5" y="1.78" width="157.39" height="55.81" rx="8.9" ry="8.9"/><text class="cls-2" transform="translate(17.69 22.11)">Decision Node <tspan x="-11.32" y="21.6">(Click to Collapse)</tspan></text><rect id="_Rectangle_2" data-name="&lt;Rectangle&gt;" class="cls-3" x="194" y="1.35" width="157.78" height="56.67" rx="8.9" ry="8.9"/><text class="cls-2" transform="translate(213.88 22.11)">Decision Node<tspan x="-9.33" y="21.6">(Click to Expand)</tspan></text><rect class="cls-4" x="394.49" y="0.34" width="133.11" height="58.68"/><text class="cls-2" transform="translate(416.88 23.55)">Leaf Node <tspan x="-2.83" y="21.6">(Poisonous)</tspan></text><rect class="cls-5" x="578.99" y="0.34" width="133.11" height="58.68"/><text class="cls-2" transform="translate(601.38 22.11)">Leaf Node <tspan x="14.51" y="21.6">(Edible)</tspan></text><path class="cls-6" d="M879.94,59a151.21,151.21,0,0,1-31.25-1c-21.18-2.92-29.43-8.89-50.15-11.48a142.31,142.31,0,0,0-32-.28V.15a201,201,0,0,1,35,1.63c18.68,2.56,26.43,6.46,45.41,9.15a204.85,204.85,0,0,0,33,2Z"/><text class="cls-2" transform="translate(891.26 26.27)">Thickness ~ # of examples<tspan x="0" y="21.6">Color ~ purity (# of poisonous vs # of edible)</tspan></text></g></g></svg>