<svg xmlns="http://www.w3.org/2000/svg" viewBox="0 0 16 26"><defs><style>.cls-1{fill:#90a4ae;}</style></defs><title>Asset 1</title><g id="Layer_2" data-name="Layer 2"><g id="Layer_1-2" data-name="Layer 1"><path class="cls-1" d="M3,0a3,3,0,0,0-.53,5.94V18.72L1.34,17.63l-.72.72,1.75,1.72A3,3,0,1,0,6,23a3,3,0,0,0-2.37-2.94l1.72-1.72-.72-.72L3.53,18.72V6.91c2.45,0,4.32,0,5.63.06a4.36,4.36,0,0,1,2.63.75A3.2,3.2,0,0,1,12.47,10c.06,1,0,2.51,0,4.31l-1.16-1.16-.72.72L12,15.19A3,3,0,1,0,16,18a3,3,0,0,0-2-2.81l1.34-1.34-.72-.72L13.5,14.25c0-1.78,0-3.25,0-4.34a4.14,4.14,0,0,0-1-2.94A5.16,5.16,0,0,0,9.22,6c-1.34-.1-3.15-.07-5.47-.06A3,3,0,0,0,3,0Z"/></g></g></svg>