<svg xmlns:dc="http://purl.org/dc/elements/1.1/" xmlns:cc="http://creativecommons.org/ns#" xmlns:rdf="http://www.w3.org/1999/02/22-rdf-syntax-ns#" xmlns:svg="http://www.w3.org/2000/svg" xmlns="http://www.w3.org/2000/svg" xmlns:sodipodi="http://sodipodi.sourceforge.net/DTD/sodipodi-0.dtd" xmlns:inkscape="http://www.inkscape.org/namespaces/inkscape" version="1.1" x="0px" y="0px" viewBox="0 0 36 45"><g transform="translate(0,4)"><g transform="translate(263.34687,-2093.5564)"><g transform="translate(3.789019,-56.5924)"><path style="text-indent:0;text-transform:none;direction:ltr;block-progression:tb;baseline-shift:baseline;color:#000000;enable-background:accumulate;" d="M 13 5 C 11.34907 5 10 6.3491 10 8 C 10 9.4661106 11.074401 10.680856 12.46875 10.9375 L 12.46875 23.71875 L 11.34375 22.625 L 10.625 23.34375 L 12.375 25.0625 C 11.025265 25.354485 10 26.565781 10 28 C 10 29.651 11.34907 31 13 31 C 14.65093 31 16 29.651 16 28 C 16 26.555462 14.989215 25.343297 13.625 25.0625 L 15.34375 23.34375 L 14.625 22.625 L 13.53125 23.71875 L 13.53125 11.90625 C 15.977164 11.901573 17.846615 11.873363 19.15625 11.96875 C 20.57041 12.07215 21.3596 12.32525 21.78125 12.71875 C 22.2029 13.11225 22.39338 13.75685 22.46875 14.96875 C 22.532763 15.997622 22.508163 17.475212 22.5 19.28125 L 21.34375 18.125 L 20.625 18.84375 L 22 20.1875 C 20.842954 20.604371 20 21.703356 20 23 C 20 24.651 21.34907 26 23 26 C 24.65093 26 26 24.651 26 23 C 26 21.693037 25.171432 20.59653 24 20.1875 L 25.34375 18.84375 L 24.625 18.125 L 23.5 19.25 C 23.50937 17.471091 23.536926 16.003653 23.46875 14.90625 C 23.38785 13.60565 23.1721 12.62525 22.46875 11.96875 C 21.7654 11.31225 20.71084 11.07785 19.21875 10.96875 C 17.882356 10.871034 16.069638 10.899429 13.75 10.90625 C 15.050313 10.578058 16 9.3990924 16 8 C 16 6.3491 14.65093 5 13 5 z " transform="translate(-267.13589,2146.1488)" fill="#000000" fill-opacity="1" fill-rule="nonzero" stroke="none" marker="none" visibility="visible" display="inline" overflow="visible"/></g></g></g><text x="0" y="51" fill="#000000" font-size="5px" font-weight="bold" font-family="'Helvetica Neue', Helvetica, Arial-Unicode, Arial, Sans-serif">Created by Chameleon Design</text><text x="0" y="56" fill="#000000" font-size="5px" font-weight="bold" font-family="'Helvetica Neue', Helvetica, Arial-Unicode, Arial, Sans-serif">from the Noun Project</text></svg>