<?xml version="1.0" encoding="utf-8"?>
<!-- Generator: Adobe Illustrator 20.1.0, SVG Export Plug-In . SVG Version: 6.00 Build 0)  -->
<svg version="1.1"
	 id="Layer_1" xmlns:cc="http://creativecommons.org/ns#" xmlns:dc="http://purl.org/dc/elements/1.1/" xmlns:inkscape="http://www.inkscape.org/namespaces/inkscape" xmlns:rdf="http://www.w3.org/1999/02/22-rdf-syntax-ns#" xmlns:sodipodi="http://sodipodi.sourceforge.net/DTD/sodipodi-0.dtd" xmlns:svg="http://www.w3.org/2000/svg"
	 xmlns="http://www.w3.org/2000/svg" xmlns:xlink="http://www.w3.org/1999/xlink" x="0px" y="0px" viewBox="0 0 36 45"
	 style="enable-background:new 0 0 36 45;" xml:space="preserve">
<style type="text/css">
	.st0{fill:#90A4AE;}
</style>
<g transform="translate(0,4)">
	<g transform="translate(263.34687,-2093.5564)">
		<g transform="translate(3.789019,-56.5924)">
			<path class="st0" d="M-254.1,2151.1c-1.7,0-3,1.3-3,3c0,1.5,1.1,2.7,2.5,2.9v12.8l-1.1-1.1l-0.7,0.7l1.8,1.7
				c-1.3,0.3-2.4,1.5-2.4,2.9c0,1.7,1.3,3,3,3s3-1.3,3-3c0-1.4-1-2.7-2.4-2.9l1.7-1.7l-0.7-0.7l-1.1,1.1v-11.8c2.4,0,4.3,0,5.6,0.1
				c1.4,0.1,2.2,0.4,2.6,0.8s0.6,1,0.7,2.2c0.1,1,0,2.5,0,4.3l-1.2-1.2l-0.7,0.7l1.4,1.3c-1.2,0.4-2,1.5-2,2.8c0,1.7,1.3,3,3,3
				s3-1.3,3-3c0-1.3-0.8-2.4-2-2.8l1.3-1.3l-0.7-0.7l-1.1,1.1c0-1.8,0-3.2,0-4.3c-0.1-1.3-0.3-2.3-1-2.9s-1.8-0.9-3.2-1
				c-1.3-0.1-3.1-0.1-5.5-0.1c1.3-0.3,2.2-1.5,2.2-2.9C-251.1,2152.5-252.5,2151.1-254.1,2151.1z"/>
		</g>
	</g>
</g>
</svg>
