<?xml version="1.0" encoding="utf-8"?>
<!-- Generator: Adobe Illustrator 20.1.0, SVG Export Plug-In . SVG Version: 6.00 Build 0)  -->
<svg version="1.1" id="Layer_1" xmlns="http://www.w3.org/2000/svg" xmlns:xlink="http://www.w3.org/1999/xlink" x="0px" y="0px"
	 viewBox="0 0 64 80" style="enable-background:new 0 0 64 80;" xml:space="preserve">
<style type="text/css">
	.st0{fill:#90A4AE;}
</style>
<g>
	<g>
		<rect x="26" y="42" class="st0" width="12" height="16"/>
		<rect x="26" y="6" class="st0" width="12" height="16"/>
		<rect x="26" y="26" class="st0" width="12" height="12"/>
		<rect x="6" y="26" class="st0" width="16" height="12"/>
		<rect x="42" y="26" class="st0" width="16" height="12"/>
		<path class="st0" d="M42,42v16h14c1.1,0,2-0.9,2-2V42H42z"/>
		<path class="st0" d="M22,42H6v14c0,1.1,0.9,2,2,2h14V42z"/>
		<path class="st0" d="M42,22h16V8c0-1.1-0.9-2-2-2H42V22z"/>
		<path class="st0" d="M22,22V6H8C6.9,6,6,6.9,6,8v14H22z"/>
	</g>
</g>
</svg>
