<svg xmlns="http://www.w3.org/2000/svg" xmlns:xlink="http://www.w3.org/1999/xlink" version="1.1" x="0px" y="0px" viewBox="0 0 64 80" enable-background="new 0 0 64 64" xml:space="preserve"><g><g><rect x="26" y="42" width="12" height="16"/><rect x="26" y="6" width="12" height="16"/><rect x="26" y="26" width="12" height="12"/><rect x="6" y="26" width="16" height="12"/><rect x="42" y="26" width="16" height="12"/><path d="M42,42v16h14c1.104,0,2-0.896,2-2V42H42z"/><path d="M22,42H6v14c0,1.104,0.896,2,2,2h14V42z"/><path d="M42,22h16V8c0-1.104-0.896-2-2-2H42V22z"/><path d="M22,22V6H8C6.896,6,6,6.896,6,8v14H22z"/></g></g><text x="0" y="79" fill="#000000" font-size="5px" font-weight="bold" font-family="'Helvetica Neue', Helvetica, Arial-Unicode, Arial, Sans-serif">Created by Ralf Schmitzer</text><text x="0" y="84" fill="#000000" font-size="5px" font-weight="bold" font-family="'Helvetica Neue', Helvetica, Arial-Unicode, Arial, Sans-serif">from the Noun Project</text></svg>