<svg xmlns="http://www.w3.org/2000/svg" viewBox="0 0 52 52"><defs><style>.cls-1{fill:#80cbc4;}</style></defs><title>Asset 3</title><g id="Layer_2" data-name="Layer 2"><g id="Layer_1-2" data-name="Layer 1"><g id="Layer_2-2" data-name="Layer 2"><g id="Layer_1-2-2" data-name="Layer 1-2"><rect class="cls-1" x="20" y="36" width="12" height="16"/><rect class="cls-1" x="20" width="12" height="16"/><rect class="cls-1" x="20" y="20" width="12" height="12"/><rect class="cls-1" y="20" width="16" height="12"/><rect class="cls-1" x="36" y="20" width="16" height="12"/><path class="cls-1" d="M36,36V52H50a2,2,0,0,0,2-2V36Z"/><path class="cls-1" d="M16,36H0V50a2,2,0,0,0,2,2H16Z"/><path class="cls-1" d="M36,16H52V2a2,2,0,0,0-2-2H36Z"/><path class="cls-1" d="M16,16V0H2A2,2,0,0,0,0,2V16Z"/></g></g></g></g></svg>