<svg xmlns="http://www.w3.org/2000/svg" xmlns:xlink="http://www.w3.org/1999/xlink" version="1.0" x="0px" y="0px" viewBox="0 0 100 125" enable-background="new 0 0 100 100" xml:space="preserve"><path fill="none" stroke="#000000" stroke-width="6" stroke-linecap="round" stroke-linejoin="round" d="M49.833,56.21  c0,0-0.786-0.016-6.578,0c-7.911,0.02-33.345-0.944-29.378-18.29C18.932,15.819,37.775,5,49.833,5h0.165  c12.06,0,29.145,8.77,35.955,32.92c4.831,17.126-21.467,18.269-29.378,18.29C50.458,56.226,49.833,56.21,49.833,56.21"/><path fill="none" stroke="#000000" stroke-width="6" d="M38.198,56.217c0,0-1.825,2.686-5.133,21.244  C29.635,96.696,49.999,94.96,49.999,94.96s20.364,1.736,16.937-17.499c-3.311-18.559-5.134-21.244-5.134-21.244"/><path fill="none" stroke="#000000" stroke-width="6" stroke-linecap="round" stroke-linejoin="round" d="M71.513,28.519"/><ellipse fill="none" stroke="#000000" stroke-width="3" stroke-linecap="round" stroke-linejoin="round" cx="34.586" cy="30.608" rx="10.49" ry="9.371"/><ellipse fill="none" stroke="#000000" stroke-width="3" stroke-linecap="round" stroke-linejoin="round" cx="55.953" cy="42.258" rx="5.953" ry="6.042"/><path fill="none" stroke="#000000" stroke-width="3" stroke-linecap="round" stroke-linejoin="round" d="M63.136,7.775  c-4.013,2.435-6.724,7.004-6.724,12.251c0,7.803,5.975,14.125,13.345,14.125c5.335,0,9.925-3.32,12.062-8.108  C76.696,16.987,69.94,11.123,63.136,7.775z"/><text x="0" y="115" fill="#000000" font-size="5px" font-weight="bold" font-family="'Helvetica Neue', Helvetica, Arial-Unicode, Arial, Sans-serif">Created by Daria Moskvina</text><text x="0" y="120" fill="#000000" font-size="5px" font-weight="bold" font-family="'Helvetica Neue', Helvetica, Arial-Unicode, Arial, Sans-serif">from the Noun Project</text></svg>