<svg xmlns="http://www.w3.org/2000/svg" viewBox="0 0 78.83 95.23"><defs><style>.cls-1,.cls-2{fill:none;stroke:#68b4ba;stroke-width:6px;}.cls-1{stroke-linecap:round;stroke-linejoin:round;}</style></defs><title>Asset 1</title><g id="Layer_2" data-name="Layer 2"><g id="Layer_1-2" data-name="Layer 1"><path class="cls-1" d="M39.25,54s-.78,0-6.56,0c-7.88,0-33.23-.94-29.27-18.23C8.45,13.78,27.23,3,39.25,3h.16c12,0,29,8.74,35.83,32.8C80.05,52.87,53.85,54,46,54c-6.1,0-6.72,0-6.72,0"/><path class="cls-2" d="M27.57,53.58s-1.82,2.68-5.12,21.17C19,93.92,39.33,92.19,39.33,92.19S59.62,93.92,56.2,74.75c-3.3-18.49-5.11-21.17-5.11-21.17"/><path class="cls-1" d="M47.18,14.64a33.18,33.18,0,0,1,7.88,4.73,37.61,37.61,0,0,1,5.7,6.6"/></g></g></svg>