<svg xmlns="http://www.w3.org/2000/svg" viewBox="0 0 652.92 777.5"><defs><style>.cls-1{fill:#90a4ae;}</style></defs><title>Asset 2</title><g id="Layer_2" data-name="Layer 2"><g id="Layer_1-2" data-name="Layer 1"><path class="cls-1" d="M541.66,132.77c-208.1-287.6-434.5-18.4-434.5-18.4-208.1,342.7-49,397.8-49,397.8a507.53,507.53,0,0,0,92,20.7c.1-1.1.2-2.2.2-3.4-46.6-5.5-79.4-24.7-84-66.3,0,0,185.6-191.8,520.2-95.9,0,0,40.2,23-31.4,68.9.8,1.7,1.5,3.4,2.3,5.1,25.2-14.7,39.3-25,39.3-25C749.76,277.67,541.66,132.77,541.66,132.77Zm-433.8,197.4a28,28,0,1,1,28-28A28,28,0,0,1,107.86,330.17Zm142.2-216.8a37,37,0,1,1,37,37A37,37,0,0,1,250.06,113.37Zm79,154a40,40,0,1,1,40-40A40,40,0,0,1,329.06,267.37Z"/><path class="cls-1" d="M526.36,751.37c-15.3,1.5-355.9,90.5-382.5-68.8-.8-4.8,1.4-79.8,6.3-149.6.1-1.1.2-2.2.2-3.4,4.4-61.4,11-117.8,19.5-117.8,0,0,101-56.6,215.7-52,0,0,134.6-13.8,142.3,19.9,0,0,12.2,22.6,27.3,56.6.8,1.7,1.5,3.4,2.3,5.1C602.06,543.37,667.26,737.27,526.36,751.37Z"/></g></g></svg>