<svg xmlns="http://www.w3.org/2000/svg" xmlns:xlink="http://www.w3.org/1999/xlink" version="1.0" x="0px" y="0px" viewBox="0 0 100 125" enable-background="new 0 0 100 100" xml:space="preserve"><path fill="none" stroke="#000000" stroke-width="6" stroke-linecap="round" stroke-linejoin="round" d="M49.918,56.417  c0,0-0.783-0.016-6.555,0c-7.883,0.02-33.229-0.941-29.275-18.227c5.037-22.024,23.814-32.804,35.83-32.804h0.164  c12.017,0,29.042,8.739,35.83,32.804c4.813,17.066-21.393,18.205-29.275,18.227C50.541,56.433,49.918,56.417,49.918,56.417"/><path fill="none" stroke="#000000" stroke-width="6" d="M38.24,55.966c0,0-1.817,2.676-5.115,21.17  C29.708,96.304,50,94.573,50,94.573s20.292,1.73,16.876-17.438c-3.299-18.494-5.115-21.17-5.115-21.17"/><path fill="none" stroke="#000000" stroke-width="6" stroke-linecap="round" stroke-linejoin="round" d="M57.855,17.031  c0,0,4.52,1.844,7.884,4.733c3.053,2.622,5.699,6.6,5.699,6.6"/><text x="0" y="115" fill="#000000" font-size="5px" font-weight="bold" font-family="'Helvetica Neue', Helvetica, Arial-Unicode, Arial, Sans-serif">Created by Daria Moskvina</text><text x="0" y="120" fill="#000000" font-size="5px" font-weight="bold" font-family="'Helvetica Neue', Helvetica, Arial-Unicode, Arial, Sans-serif">from the Noun Project</text></svg>