<svg xmlns="http://www.w3.org/2000/svg" viewBox="0 0 79.08 96"><defs><style>.cls-1,.cls-2,.cls-3{fill:none;stroke:#a55d95;}.cls-1,.cls-3{stroke-linecap:round;stroke-linejoin:round;}.cls-1,.cls-2{stroke-width:6px;}.cls-3{stroke-width:3px;}</style></defs><title>Asset 1</title><g id="Layer_2" data-name="Layer 2"><g id="Layer_1-2" data-name="Layer 1"><path class="cls-1" d="M39.37,54.21s-.79,0-6.58,0c-7.91,0-33.35-.94-29.38-18.29C8.47,13.82,27.32,3,39.37,3h.17c12.06,0,29.15,8.77,36,32.92C80.32,53,54,54.19,46.12,54.21c-6.12,0-6.74,0-6.74,0"/><path class="cls-2" d="M27.74,54.22s-1.83,2.69-5.13,21.24C19.18,94.7,39.54,93,39.54,93S59.9,94.7,56.48,75.46c-3.31-18.56-5.13-21.24-5.13-21.24"/><path class="cls-1" d="M61.05,26.52"/><ellipse class="cls-3" cx="24.13" cy="28.61" rx="10.49" ry="9.37"/><ellipse class="cls-3" cx="45.49" cy="40.26" rx="5.95" ry="6.04"/><path class="cls-3" d="M52.68,5.78A14.27,14.27,0,0,0,46,18c0,7.8,6,14.13,13.35,14.13A13.31,13.31,0,0,0,71.36,24C66.24,15,59.48,9.12,52.68,5.78Z"/></g></g></svg>