<svg xmlns="http://www.w3.org/2000/svg" xmlns:xlink="http://www.w3.org/1999/xlink" version="1.1" x="0px" y="0px" viewBox="0 0 1000 1250" style="enable-background:new 0 0 1000 1000;" xml:space="preserve"><g><path d="M715.2,244c-208.1-287.6-434.5-18.4-434.5-18.4c-208.1,342.7-49,397.8-49,397.8   c31.1,10.1,61.8,16.8,92,20.7c0.1-1.1,0.2-2.2,0.2-3.4c-46.6-5.5-79.4-24.7-84-66.3c0,0,185.6-191.8,520.2-95.9   c0,0,40.2,23-31.4,68.9c0.8,1.7,1.5,3.4,2.3,5.1c25.2-14.7,39.3-25,39.3-25C923.3,388.9,715.2,244,715.2,244z M281.4,441.4   c-15.5,0-28-12.5-28-28c0-15.5,12.5-28,28-28c15.5,0,28,12.5,28,28C309.4,428.9,296.8,441.4,281.4,441.4z M423.6,224.6   c0-20.4,16.6-37,37-37c20.4,0,37,16.6,37,37c0,20.4-16.6,37-37,37C440.1,261.6,423.6,245,423.6,224.6z M502.6,378.6   c-22.1,0-40-17.9-40-40c0-22.1,17.9-40,40-40s40,17.9,40,40C542.6,360.7,524.7,378.6,502.6,378.6z"/><path d="M699.9,862.6c-15.3,1.5-355.9,90.5-382.5-68.8c-0.8-4.8,1.4-79.8,6.3-149.6c0.1-1.1,0.2-2.2,0.2-3.4   c4.4-61.4,11-117.8,19.5-117.8c0,0,101-56.6,215.7-52c0,0,134.6-13.8,142.3,19.9c0,0,12.2,22.6,27.3,56.6c0.8,1.7,1.5,3.4,2.3,5.1   C775.6,654.6,840.8,848.5,699.9,862.6z"/></g><text x="0" y="1015" fill="#000000" font-size="5px" font-weight="bold" font-family="'Helvetica Neue', Helvetica, Arial-Unicode, Arial, Sans-serif">Created by sai aditya</text><text x="0" y="1020" fill="#000000" font-size="5px" font-weight="bold" font-family="'Helvetica Neue', Helvetica, Arial-Unicode, Arial, Sans-serif">from the Noun Project</text></svg>