<svg xmlns="http://www.w3.org/2000/svg" xmlns:xlink="http://www.w3.org/1999/xlink" xml:space="preserve" version="1.1" style="shape-rendering:geometricPrecision;text-rendering:geometricPrecision;image-rendering:optimizeQuality;" viewBox="0 0 508 635" x="0px" y="0px" fill-rule="evenodd" clip-rule="evenodd"><defs><style type="text/css">
   
    .str0 {stroke:black;stroke-width:7.62;stroke-linecap:round;stroke-linejoin:round}
    .fil0 {fill:none}
   
  </style></defs><g><path class="fil0 str0" d="M219 213c-7,0 -14,1 -21,2 -21,2 -43,4 -60,5 -17,0 -30,0 -40,-2 -10,-2 -18,-5 -24,-8 -5,-3 -8,-7 -10,-10 -2,-4 -4,-8 -4,-14 -1,-5 -1,-11 1,-17 2,-5 6,-9 12,-15 6,-5 13,-11 21,-16 8,-5 16,-9 24,-13 8,-3 14,-6 20,-9 5,-3 9,-7 14,-10 4,-3 9,-7 15,-13 5,-6 11,-14 17,-22 6,-8 12,-15 18,-22 6,-7 13,-13 21,-18 9,-4 19,-7 27,-8 9,-1 15,-1 21,0 6,1 12,4 18,8 6,3 11,8 17,16 5,7 11,17 17,27 6,9 13,18 22,25 8,7 19,13 29,16 10,4 20,5 29,7 9,3 15,6 20,9 5,3 8,6 10,9 2,3 3,6 3,10 -1,4 -4,8 -11,13 -7,4 -18,9 -35,14 -18,5 -43,11 -66,17 -23,5 -44,9 -65,13 0,0 0,0 0,0"/><path class="fil0 str0" d="M74 210c0,-4 -1,-7 -1,-11 1,-3 2,-7 5,-11 3,-3 8,-6 15,-9 6,-3 14,-7 23,-8 9,-2 17,-3 28,-4 11,0 23,-1 38,-1 15,1 32,2 47,3 15,0 28,0 42,-1 13,-1 28,-2 43,-4 15,-2 31,-4 43,-6 13,-1 23,-2 30,-4 6,-1 10,-1 13,-1 4,0 6,0 7,1 1,1 2,2 2,4 -1,3 -3,7 -7,11 -3,3 -8,5 -15,9"/><path class="fil0 str0" d="M221 168c0,13 0,25 -1,37 -1,9 -2,19 -4,31m-9 54c-2,8 -4,16 -6,23 -6,23 -13,43 -18,60 -6,16 -10,29 -12,41 -3,12 -3,23 -1,32 2,10 7,18 14,24 8,6 18,11 29,13 12,3 24,5 36,3 12,-2 24,-6 32,-11 8,-5 13,-11 16,-17 4,-6 6,-12 6,-21 0,-9 -2,-21 -7,-34 -5,-14 -12,-29 -17,-40 -5,-11 -7,-18 -9,-26 -2,-8 -4,-17 -5,-26 -1,-7 -1,-13 -2,-21m-4 -59c0,-1 0,-2 0,-2 -1,-18 0,-32 0,-43 1,-7 1,-12 1,-17"/><path class="fil0 str0" d="M216 236c-4,3 -8,5 -13,8 -6,5 -14,12 -19,18 -5,6 -8,11 -9,16 0,5 2,10 5,12 2,2 7,2 11,2 4,-1 9,-2 12,-2 4,-1 7,0 10,1 3,0 6,1 9,1 3,1 6,2 9,1 3,0 7,-2 10,-3 3,-2 6,-3 9,-3 3,-1 6,0 10,1 4,2 8,3 12,3 4,0 9,-1 12,-4 2,-2 3,-5 5,-7 2,-3 5,-5 8,-6 2,-2 5,-4 7,-7 3,-3 4,-7 3,-12 -2,-5 -7,-10 -13,-14 -6,-4 -14,-7 -20,-9 -6,-1 -11,-1 -15,-1"/><path class="fil0 str0" d="M216 236c5,1 6,3 10,4 5,0 9,1 14,1 5,0 10,-3 14,-6 2,-1 4,-3 5,-4"/><path class="fil0 str0" d="M217 244c-2,4 -5,8 -7,12 -1,3 -2,6 -3,8"/><path class="fil0 str0" d="M233 241c0,4 -1,8 -1,12 0,4 0,9 0,13"/><path class="fil0 str0" d="M248 241c2,3 4,7 5,11 1,4 3,8 4,12"/><path class="fil0 str0" d="M256 234c5,3 11,7 16,11 5,4 10,8 15,12"/><path class="fil0 str0" d="M190 463c0,-9 1,-19 3,-29 2,-10 6,-21 9,-32"/><path class="fil0 str0" d="M176 448c2,-9 4,-18 7,-29 3,-11 7,-23 11,-35"/><path class="fil0 str0" d="M218 54c-4,2 -7,6 -9,10 -2,4 -4,8 -3,11 0,4 2,8 4,9 3,1 7,-1 11,-4 3,-3 5,-7 7,-13 1,-5 2,-10 0,-13 -2,-3 -6,-2 -10,0z"/><path class="fil0 str0" d="M257 34c-3,2 -6,5 -6,9 -1,4 1,8 4,10 3,2 6,1 8,-1 2,-3 3,-8 3,-11 0,-4 -1,-6 -3,-7 -1,-2 -3,-1 -6,0z"/><path class="fil0 str0" d="M255 83c-2,2 -3,7 -3,11 -1,4 0,7 2,10 2,3 5,6 9,7 3,1 8,0 11,-2 2,-3 4,-6 4,-11 -1,-4 -2,-10 -4,-13 -2,-4 -4,-5 -6,-6 -3,-1 -6,-1 -8,-1 -2,0 -4,2 -5,5z"/><path class="fil0 str0" d="M288 51c0,1 -1,2 -1,3 -1,2 -1,4 0,6 1,3 3,5 5,6 2,1 4,0 5,-2 1,-2 1,-4 1,-6 0,-3 -1,-5 -2,-6 -1,-2 -3,-3 -4,-3 -1,-1 -1,0 -2,0 0,1 -1,1 -2,2z"/><path class="fil0 str0" d="M311 92c-2,1 -4,2 -5,4 -1,2 0,4 1,7 1,2 2,5 4,7 2,2 5,2 7,2 2,-1 4,-3 5,-5 1,-2 1,-4 1,-6 -1,-2 -2,-4 -4,-5 -1,-2 -3,-3 -5,-3 -1,-1 -3,-1 -4,-1z"/><path class="fil0 str0" d="M300 127c-2,0 -3,2 -3,4 0,2 1,4 2,6 2,2 5,3 7,2 2,0 3,-2 4,-4 0,-3 -1,-5 -3,-6 -2,-2 -4,-3 -7,-2z"/><path class="fil0 str0" d="M193 113c-1,1 -1,2 -1,3 0,2 0,5 1,8 1,2 2,3 4,4 2,1 4,0 7,-1 2,-2 4,-5 6,-8 1,-3 2,-6 3,-9 0,-3 0,-6 -1,-7 -1,-2 -3,-2 -5,-2 -2,1 -5,2 -7,3 -2,1 -4,3 -6,5 -1,1 -1,3 -1,4z"/><path class="fil0 str0" d="M158 122c-2,3 -4,5 -4,7 -1,2 -1,4 1,5 1,1 3,2 6,2 3,-1 5,-2 7,-4 2,-2 4,-5 4,-7 0,-2 -1,-4 -2,-5 -2,-1 -4,-1 -6,-1 -2,1 -4,1 -5,2 -1,1 -1,2 -2,2 0,0 0,1 0,1"/><path class="fil0 str0" d="M355 128c-2,0 -5,-1 -7,1 -2,2 -3,6 -1,8 1,3 6,4 10,4 3,0 7,-1 8,-3 2,-2 2,-4 1,-5 -1,-2 -3,-3 -7,-4 -1,0 -1,0 -4,-1z"/><path class="fil0 str0" d="M231 146c-2,2 -3,5 -2,7 0,1 3,1 6,0 3,-1 5,-4 6,-6 1,-3 1,-5 0,-7 -1,-1 -3,-1 -4,0 -2,1 -4,3 -6,6z"/><path class="fil0 str0" d="M115 151c-2,1 -5,2 -6,4 -1,1 0,3 2,3 2,1 5,-1 7,-2 2,-2 3,-4 3,-5 0,-1 -1,-2 -2,-2 -1,0 -2,1 -4,2z"/></g><text x="0" y="523" fill="#000000" font-size="5px" font-weight="bold" font-family="'Helvetica Neue', Helvetica, Arial-Unicode, Arial, Sans-serif">Created by Alex Muravev</text><text x="0" y="528" fill="#000000" font-size="5px" font-weight="bold" font-family="'Helvetica Neue', Helvetica, Arial-Unicode, Arial, Sans-serif">from the Noun Project</text></svg>