<?xml version="1.0" encoding="utf-8"?>
<!-- Generator: Adobe Illustrator 21.1.0, SVG Export Plug-In . SVG Version: 6.00 Build 0)  -->
<svg version="1.1" id="Layer_1" xmlns="http://www.w3.org/2000/svg" xmlns:xlink="http://www.w3.org/1999/xlink" x="0px" y="0px"
	 viewBox="0 0 508 400" style="enable-background:new 0 0 508 400;" xml:space="preserve">
<style type="text/css">
	.st0{fill:none;stroke:#000000;stroke-width:5;stroke-linecap:round;stroke-linejoin:round;}
</style>
<g>
	<path class="st0" d="M235.5,123.6c-3.4,0-6.8,0.5-10.1,1c-10.1,1-20.7,1.9-28.9,2.4c-8.2,0-14.5,0-19.3-1s-8.7-2.4-11.6-3.9
		c-2.4-1.4-3.9-3.4-4.8-4.8c-1-1.9-1.9-3.9-1.9-6.8c-0.5-2.4-0.5-5.3,0.5-8.2c1-2.4,2.9-4.3,5.8-7.2c2.9-2.4,6.3-5.3,10.1-7.7
		c3.9-2.4,7.7-4.3,11.6-6.3c3.9-1.4,6.8-2.9,9.6-4.3c2.4-1.4,4.3-3.4,6.8-4.8c1.9-1.4,4.3-3.4,7.2-6.3c2.4-2.9,5.3-6.8,8.2-10.6
		c2.9-3.9,5.8-7.2,8.7-10.6c2.9-3.4,6.3-6.3,10.1-8.7c4.3-1.9,9.2-3.4,13-3.9c4.3-0.5,7.2-0.5,10.1,0c2.9,0.5,5.8,1.9,8.7,3.9
		c2.9,1.4,5.3,3.9,8.2,7.7c2.4,3.4,5.3,8.2,8.2,13c2.9,4.3,6.3,8.7,10.6,12.1c3.9,3.4,9.2,6.3,14,7.7c4.8,1.9,9.6,2.4,14,3.4
		c4.3,1.4,7.2,2.9,9.6,4.3c2.4,1.4,3.9,2.9,4.8,4.3s1.4,2.9,1.4,4.8c-0.5,1.9-1.9,3.9-5.3,6.3c-3.4,1.9-8.7,4.3-16.9,6.8
		c-8.7,2.4-20.7,5.3-31.8,8.2c-11.1,2.4-21.2,4.3-31.3,6.3l0,0"/>
	<path class="st0" d="M165.6,122.1c0-1.9-0.5-3.4-0.5-5.3c0.5-1.4,1-3.4,2.4-5.3c1.4-1.4,3.9-2.9,7.2-4.3c2.9-1.4,6.8-3.4,11.1-3.9
		c4.3-1,8.2-1.4,13.5-1.9c5.3,0,11.1-0.5,18.3-0.5c7.2,0.5,15.4,1,22.7,1.4c7.2,0,13.5,0,20.3-0.5c6.3-0.5,13.5-1,20.7-1.9
		c7.2-1,15-1.9,20.7-2.9c6.3-0.5,11.1-1,14.5-1.9c2.9-0.5,4.8-0.5,6.3-0.5c1.9,0,2.9,0,3.4,0.5c0.5,0.5,1,1,1,1.9
		c-0.5,1.4-1.4,3.4-3.4,5.3c-1.4,1.4-3.9,2.4-7.2,4.3"/>
	<path class="st0" d="M236.5,101.9c0,6.3,0,12.1-0.5,17.8c-0.5,4.3-1,9.2-1.9,15 M229.7,160.7c-1,3.9-1.9,7.7-2.9,11.1
		c-2.9,11.1-6.3,20.7-8.7,28.9c-2.9,7.7-4.8,14-5.8,19.8c-1.4,5.8-1.4,11.1-0.5,15.4c1,4.8,3.4,8.7,6.8,11.6c3.9,2.9,8.7,5.3,14,6.3
		c5.8,1.4,11.6,2.4,17.4,1.4c5.8-1,11.6-2.9,15.4-5.3c3.9-2.4,6.3-5.3,7.7-8.2c1.9-2.9,2.9-5.8,2.9-10.1c0-4.3-1-10.1-3.4-16.4
		c-2.4-6.8-5.8-14-8.2-19.3s-3.4-8.7-4.3-12.5c-1-3.9-1.9-8.2-2.4-12.5c-0.5-3.4-0.5-6.3-1-10.1 M254.8,132.2c0-0.5,0-1,0-1
		c-0.5-8.7,0-15.4,0-20.7c0.5-3.4,0.5-5.8,0.5-8.2"/>
	<path class="st0" d="M234.1,134.7c-1.9,1.4-3.9,2.4-6.3,3.9c-2.9,2.4-6.8,5.8-9.2,8.7s-3.9,5.3-4.3,7.7c0,2.4,1,4.8,2.4,5.8
		c1,1,3.4,1,5.3,1c1.9-0.5,4.3-1,5.8-1c1.9-0.5,3.4,0,4.8,0.5c1.4,0,2.9,0.5,4.3,0.5c1.4,0.5,2.9,1,4.3,0.5c1.4,0,3.4-1,4.8-1.4
		c1.4-1,2.9-1.4,4.3-1.4c1.4-0.5,2.9,0,4.8,0.5c1.9,1,3.9,1.4,5.8,1.4c1.9,0,4.3-0.5,5.8-1.9c1-1,1.4-2.4,2.4-3.4
		c1-1.4,2.4-2.4,3.9-2.9c1-1,2.4-1.9,3.4-3.4c1.4-1.4,1.9-3.4,1.4-5.8c-1-2.4-3.4-4.8-6.3-6.8c-2.9-1.9-6.8-3.4-9.6-4.3
		c-2.9-0.5-5.3-0.5-7.2-0.5"/>
	<path class="st0" d="M234.1,134.7c2.4,0.5,2.9,1.4,4.8,1.9c2.4,0,4.3,0.5,6.8,0.5s4.8-1.4,6.8-2.9c1-0.5,1.9-1.4,2.4-1.9"/>
	<path class="st0" d="M234.6,138.5c-1,1.9-2.4,3.9-3.4,5.8c-0.5,1.4-1,2.9-1.4,3.9"/>
	<path class="st0" d="M242.3,137.1c0,1.9-0.5,3.9-0.5,5.8s0,4.3,0,6.3"/>
	<path class="st0" d="M249.5,137.1c1,1.4,1.9,3.4,2.4,5.3c0.5,1.9,1.4,3.9,1.9,5.8"/>
	<path class="st0" d="M253.4,133.7c2.4,1.4,5.3,3.4,7.7,5.3c2.4,1.9,4.8,3.9,7.2,5.8"/>
	<path class="st0" d="M221.5,244.1c0-4.3,0.5-9.2,1.4-14s2.9-10.1,4.3-15.4"/>
	<path class="st0" d="M214.8,236.9c1-4.3,1.9-8.7,3.4-14c1.4-5.3,3.4-11.1,5.3-16.9"/>
	<path class="st0" d="M235.1,46.9c-1.9,1-3.4,2.9-4.3,4.8s-1.9,3.9-1.4,5.3c0,1.9,1,3.9,1.9,4.3c1.4,0.5,3.4-0.5,5.3-1.9
		c1.4-1.4,2.4-3.4,3.4-6.3c0.5-2.4,1-4.8,0-6.3C238.9,45.4,237,45.9,235.1,46.9z"/>
	<path class="st0" d="M253.9,37.2c-1.4,1-2.9,2.4-2.9,4.3c-0.5,1.9,0.5,3.9,1.9,4.8c1.4,1,2.9,0.5,3.9-0.5c1-1.4,1.4-3.9,1.4-5.3
		c0-1.9-0.5-2.9-1.4-3.4C256.3,36.3,255.3,36.8,253.9,37.2z"/>
	<path class="st0" d="M252.9,60.9c-1,1-1.4,3.4-1.4,5.3c-0.5,1.9,0,3.4,1,4.8c1,1.4,2.4,2.9,4.3,3.4c1.4,0.5,3.9,0,5.3-1
		c1-1.4,1.9-2.9,1.9-5.3c-0.5-1.9-1-4.8-1.9-6.3c-1-1.9-1.9-2.4-2.9-2.9c-1.4-0.5-2.9-0.5-3.9-0.5S253.4,59.4,252.9,60.9z"/>
	<path class="st0" d="M268.8,45.4c0,0.5-0.5,1-0.5,1.4c-0.5,1-0.5,1.9,0,2.9c0.5,1.4,1.4,2.4,2.4,2.9s1.9,0,2.4-1
		c0.5-1,0.5-1.9,0.5-2.9c0-1.4-0.5-2.4-1-2.9c-0.5-1-1.4-1.4-1.9-1.4c-0.5-0.5-0.5,0-1,0C269.8,45,269.3,45,268.8,45.4z"/>
	<path class="st0" d="M279.9,65.2c-1,0.5-1.9,1-2.4,1.9c-0.5,1,0,1.9,0.5,3.4c0.5,1,1,2.4,1.9,3.4c1,1,2.4,1,3.4,1
		c1-0.5,1.9-1.4,2.4-2.4c0.5-1,0.5-1.9,0.5-2.9c-0.5-1-1-1.9-1.9-2.4c-0.5-1-1.4-1.4-2.4-1.4C281.4,65.2,280.4,65.2,279.9,65.2z"/>
	<path class="st0" d="M274.6,82.1c-1,0-1.4,1-1.4,1.9c0,1,0.5,1.9,1,2.9c1,1,2.4,1.4,3.4,1c1,0,1.4-1,1.9-1.9c0-1.4-0.5-2.4-1.4-2.9
		C277,82.1,276,81.6,274.6,82.1z"/>
	<path class="st0" d="M223,75.3c-0.5,0.5-0.5,1-0.5,1.4c0,1,0,2.4,0.5,3.9c0.5,1,1,1.4,1.9,1.9c1,0.5,1.9,0,3.4-0.5
		c1-1,1.9-2.4,2.9-3.9c0.5-1.4,1-2.9,1.4-4.3c0-1.4,0-2.9-0.5-3.4c-0.5-1-1.4-1-2.4-1c-1,0.5-2.4,1-3.4,1.4c-1,0.5-1.9,1.4-2.9,2.4
		C223,73.9,223,74.9,223,75.3z"/>
	<path class="st0" d="M206.1,79.7c-1,1.4-1.9,2.4-1.9,3.4c-0.5,1-0.5,1.9,0.5,2.4c0.5,0.5,1.4,1,2.9,1c1.4-0.5,2.4-1,3.4-1.9
		c1-1,1.9-2.4,1.9-3.4s-0.5-1.9-1-2.4c-1-0.5-1.9-0.5-2.9-0.5c-1,0.5-1.9,0.5-2.4,1c-0.5,0.5-0.5,1-1,1v0.5"/>
	<path class="st0" d="M301.1,82.6c-1,0-2.4-0.5-3.4,0.5c-1,1-1.4,2.9-0.5,3.9c0.5,1.4,2.9,1.9,4.8,1.9c1.4,0,3.4-0.5,3.9-1.4
		c1-1,1-1.9,0.5-2.4c-0.5-1-1.4-1.4-3.4-1.9C302.6,83.1,302.6,83.1,301.1,82.6z"/>
	<path class="st0" d="M241.3,91.3c-1,1-1.4,2.4-1,3.4c0,0.5,1.4,0.5,2.9,0c1.4-0.5,2.4-1.9,2.9-2.9c0.5-1.4,0.5-2.4,0-3.4
		c-0.5-0.5-1.4-0.5-1.9,0C243.3,88.8,242.3,89.8,241.3,91.3z"/>
	<path class="st0" d="M185.4,93.7c-1,0.5-2.4,1-2.9,1.9c-0.5,0.5,0,1.4,1,1.4c1,0.5,2.4-0.5,3.4-1c1-1,1.4-1.9,1.4-2.4s-0.5-1-1-1
		S186.3,93.2,185.4,93.7z"/>
</g>
<g>
	<g>
		<line class="st0" x1="188.3" y1="251.6" x2="63" y2="337.4"/>
		<g>
			<polygon points="54.9,312.7 33.4,357.7 83.1,353.9 			"/>
		</g>
	</g>
</g>
<g>
	<g>
		<line class="st0" x1="296.7" y1="248.3" x2="436.3" y2="338.4"/>
		<g>
			<polygon points="416.7,355.4 466.5,357.8 443.7,313.5 			"/>
		</g>
	</g>
</g>
<g>
	<g>
		<line class="st0" x1="273.2" y1="265.1" x2="320" y2="333.7"/>
		<g>
			<polygon points="295.3,341.7 340.2,363.3 336.4,313.6 			"/>
		</g>
	</g>
</g>
<g>
	<g>
		<line class="st0" x1="219.1" y1="265.6" x2="169.8" y2="335.7"/>
		<g>
			<polygon points="153.6,315.4 149.2,365.1 194.4,344.1 			"/>
		</g>
	</g>
</g>
<g>
	<g>
		<line class="st0" x1="244.5" y1="267.2" x2="244.5" y2="339"/>
		<g>
			<polygon points="219.5,331.7 244.5,374.8 269.4,331.7 			"/>
		</g>
	</g>
</g>
</svg>
