<?xml version="1.0" encoding="utf-8"?>
<!-- Generator: Adobe Illustrator 21.1.0, SVG Export Plug-In . SVG Version: 6.00 Build 0)  -->
<svg version="1.1" id="Layer_1" xmlns="http://www.w3.org/2000/svg" xmlns:xlink="http://www.w3.org/1999/xlink" x="0px" y="0px"
	 viewBox="0 0 508 635" style="enable-background:new 0 0 508 635;" xml:space="preserve">
<style type="text/css">
	.st0{fill:none;stroke:#000000;stroke-width:7.62;stroke-linecap:round;stroke-linejoin:round;}
</style>
<g>
	<path class="st0" d="M219,213c-7,0-14,1-21,2c-21,2-43,4-60,5c-17,0-30,0-40-2s-18-5-24-8c-5-3-8-7-10-10c-2-4-4-8-4-14
		c-1-5-1-11,1-17c2-5,6-9,12-15c6-5,13-11,21-16s16-9,24-13c8-3,14-6,20-9c5-3,9-7,14-10c4-3,9-7,15-13c5-6,11-14,17-22s12-15,18-22
		s13-13,21-18c9-4,19-7,27-8c9-1,15-1,21,0s12,4,18,8c6,3,11,8,17,16c5,7,11,17,17,27c6,9,13,18,22,25c8,7,19,13,29,16
		c10,4,20,5,29,7c9,3,15,6,20,9s8,6,10,9s3,6,3,10c-1,4-4,8-11,13c-7,4-18,9-35,14c-18,5-43,11-66,17c-23,5-44,9-65,13l0,0"/>
	<path class="st0" d="M74,210c0-4-1-7-1-11c1-3,2-7,5-11c3-3,8-6,15-9c6-3,14-7,23-8c9-2,17-3,28-4c11,0,23-1,38-1c15,1,32,2,47,3
		c15,0,28,0,42-1c13-1,28-2,43-4s31-4,43-6c13-1,23-2,30-4c6-1,10-1,13-1c4,0,6,0,7,1s2,2,2,4c-1,3-3,7-7,11c-3,3-8,5-15,9"/>
	<path class="st0" d="M221,168c0,13,0,25-1,37c-1,9-2,19-4,31 M207,290c-2,8-4,16-6,23c-6,23-13,43-18,60c-6,16-10,29-12,41
		c-3,12-3,23-1,32c2,10,7,18,14,24c8,6,18,11,29,13c12,3,24,5,36,3s24-6,32-11s13-11,16-17c4-6,6-12,6-21s-2-21-7-34
		c-5-14-12-29-17-40s-7-18-9-26s-4-17-5-26c-1-7-1-13-2-21 M259,231c0-1,0-2,0-2c-1-18,0-32,0-43c1-7,1-12,1-17"/>
	<path class="st0" d="M216,236c-4,3-8,5-13,8c-6,5-14,12-19,18s-8,11-9,16c0,5,2,10,5,12c2,2,7,2,11,2c4-1,9-2,12-2c4-1,7,0,10,1
		c3,0,6,1,9,1c3,1,6,2,9,1c3,0,7-2,10-3c3-2,6-3,9-3c3-1,6,0,10,1c4,2,8,3,12,3s9-1,12-4c2-2,3-5,5-7c2-3,5-5,8-6c2-2,5-4,7-7
		c3-3,4-7,3-12c-2-5-7-10-13-14s-14-7-20-9c-6-1-11-1-15-1"/>
	<path class="st0" d="M216,236c5,1,6,3,10,4c5,0,9,1,14,1s10-3,14-6c2-1,4-3,5-4"/>
	<path class="st0" d="M217,244c-2,4-5,8-7,12c-1,3-2,6-3,8"/>
	<path class="st0" d="M233,241c0,4-1,8-1,12s0,9,0,13"/>
	<path class="st0" d="M248,241c2,3,4,7,5,11s3,8,4,12"/>
	<path class="st0" d="M256,234c5,3,11,7,16,11s10,8,15,12"/>
	<path class="st0" d="M190,463c0-9,1-19,3-29s6-21,9-32"/>
	<path class="st0" d="M176,448c2-9,4-18,7-29s7-23,11-35"/>
	<path class="st0" d="M218,54c-4,2-7,6-9,10s-4,8-3,11c0,4,2,8,4,9c3,1,7-1,11-4c3-3,5-7,7-13c1-5,2-10,0-13S222,52,218,54z"/>
	<path class="st0" d="M257,34c-3,2-6,5-6,9c-1,4,1,8,4,10s6,1,8-1c2-3,3-8,3-11c0-4-1-6-3-7C262,32,260,33,257,34z"/>
	<path class="st0" d="M255,83c-2,2-3,7-3,11c-1,4,0,7,2,10s5,6,9,7c3,1,8,0,11-2c2-3,4-6,4-11c-1-4-2-10-4-13c-2-4-4-5-6-6
		c-3-1-6-1-8-1S256,80,255,83z"/>
	<path class="st0" d="M288,51c0,1-1,2-1,3c-1,2-1,4,0,6c1,3,3,5,5,6s4,0,5-2s1-4,1-6c0-3-1-5-2-6c-1-2-3-3-4-3c-1-1-1,0-2,0
		C290,50,289,50,288,51z"/>
	<path class="st0" d="M311,92c-2,1-4,2-5,4s0,4,1,7c1,2,2,5,4,7s5,2,7,2c2-1,4-3,5-5s1-4,1-6c-1-2-2-4-4-5c-1-2-3-3-5-3
		C314,92,312,92,311,92z"/>
	<path class="st0" d="M300,127c-2,0-3,2-3,4s1,4,2,6c2,2,5,3,7,2c2,0,3-2,4-4c0-3-1-5-3-6C305,127,303,126,300,127z"/>
	<path class="st0" d="M193,113c-1,1-1,2-1,3c0,2,0,5,1,8c1,2,2,3,4,4s4,0,7-1c2-2,4-5,6-8c1-3,2-6,3-9c0-3,0-6-1-7c-1-2-3-2-5-2
		c-2,1-5,2-7,3s-4,3-6,5C193,110,193,112,193,113z"/>
	<path class="st0" d="M158,122c-2,3-4,5-4,7c-1,2-1,4,1,5c1,1,3,2,6,2c3-1,5-2,7-4s4-5,4-7s-1-4-2-5c-2-1-4-1-6-1c-2,1-4,1-5,2
		s-1,2-2,2v1"/>
	<path class="st0" d="M355,128c-2,0-5-1-7,1s-3,6-1,8c1,3,6,4,10,4c3,0,7-1,8-3c2-2,2-4,1-5c-1-2-3-3-7-4C358,129,358,129,355,128z"
		/>
	<path class="st0" d="M231,146c-2,2-3,5-2,7c0,1,3,1,6,0s5-4,6-6c1-3,1-5,0-7c-1-1-3-1-4,0C235,141,233,143,231,146z"/>
	<path class="st0" d="M115,151c-2,1-5,2-6,4c-1,1,0,3,2,3c2,1,5-1,7-2c2-2,3-4,3-5s-1-2-2-2S117,150,115,151z"/>
</g>
</svg>
