<?xml version="1.0" encoding="utf-8"?>
<!-- Generator: Adobe Illustrator 21.1.0, SVG Export Plug-In . SVG Version: 6.00 Build 0)  -->
<svg version="1.1" id="Layer_1" xmlns="http://www.w3.org/2000/svg" xmlns:xlink="http://www.w3.org/1999/xlink" x="0px" y="0px"
	 viewBox="0 0 100 125" style="enable-background:new 0 0 100 125;" xml:space="preserve">
<path d="M73.5,33.8c0.8-2.1,1.3-4.4,1.3-6.8c0-10.2-8.2-18.4-18.4-18.4c-1.2,0-2.4,0.1-3.5,0.3c-3.1-2.3-6.9-3.7-11-3.7
	c-10.2,0-18.4,8.2-18.4,18.4c0,3.5,1,6.8,2.7,9.6C19,37.5,14.1,45.4,14.1,54.5c0,13.6,11,24.6,24.6,24.6c1.2,0,2.5-0.1,3.7-0.3v16
	h13.4V79.1c1.8,0.4,3.6,0.6,5.5,0.6c13.6,0,24.6-11,24.6-24.6C85.9,46,80.9,38,73.5,33.8z"/>
</svg>
