<svg xmlns="http://www.w3.org/2000/svg" viewBox="0 0 73.9 66"><defs><style>.cls-1{fill:#90a4ae;}</style></defs><title>Asset 1</title><g id="Layer_2" data-name="Layer 2"><g id="Layer_1-2" data-name="Layer 1"><path class="cls-1" d="M63.5,50.9h0c5.9-.4,10.4-4.2,10.4-8.7C73.9,24,68.8,9.3,62.5,9.3c-3.3,0-6.3,4-8.4,10.5l-.1-.3C51.8,7.9,47.5,0,42.5,0,36.3,0,31.1,12.3,29.7,29l-.1-.1a3.68,3.68,0,0,0-2.1-.8,2.82,2.82,0,0,0-1.5.4v-.1C24.5,12.1,19.3,0,13.2,0,5.9,0,0,17.1,0,38.2c0,5.3,5.3,9.6,12,10.1h.2V65.9h2V48.4h.4a15.94,15.94,0,0,0,5-1.2c-.1,1.4-.1,2.8-.1,4.2,0,3.1,3.1,5.7,7,6.1V66h2V57.5c4-.4,7-3,7-6.1,0-1.6-.1-3.1-.2-4.6l.2.1a16.56,16.56,0,0,0,6,1.5V66h2V48.4l.1-.1a15.12,15.12,0,0,0,8.1-2.8l.1-.1c1.6,3,5.2,5.2,9.6,5.5v15h2v-14l.1-1Z"/></g></g></svg>