<svg xmlns="http://www.w3.org/2000/svg" xmlns:xlink="http://www.w3.org/1999/xlink" version="1.1" x="0px" y="0px" viewBox="0 0 100 125" enable-background="new 0 0 100 100" xml:space="preserve"><path d="M76.7,73.5L76.7,73.5c5.9-0.4,10.4-4.2,10.4-8.7c0-18.2-5.1-32.9-11.4-32.9c-3.3,0-6.3,4-8.4,10.5l-0.1-0.3  C65,30.5,60.7,22.6,55.7,22.6c-6.2,0-11.4,12.3-12.8,29l-0.1-0.1c-0.7-0.5-1.4-0.8-2.1-0.8c-0.5,0-1,0.1-1.5,0.4V51  c-1.5-16.3-6.7-28.4-12.8-28.4c-7.3,0-13.2,17.1-13.2,38.2c0,5.3,5.3,9.6,12,10.1h0.2v17.6h2V71h0.4c1.8-0.1,3.5-0.6,5-1.2  c-0.1,1.4-0.1,2.8-0.1,4.2c0,3.1,3.1,5.7,7,6.1v8.5h2v-8.5c4-0.4,7-3,7-6.1c0-1.6-0.1-3.1-0.2-4.6l0.2,0.1c1.8,0.8,3.8,1.4,6,1.5  v17.6h2V71l0.1-0.1c3.1-0.2,6-1.2,8.1-2.8L65,68c1.6,3,5.2,5.2,9.6,5.5v0.1v14.9h2v-14L76.7,73.5L76.7,73.5z"/><text x="0" y="115" fill="#000000" font-size="5px" font-weight="bold" font-family="'Helvetica Neue', Helvetica, Arial-Unicode, Arial, Sans-serif">Created by Tjaša Kimovec</text><text x="0" y="120" fill="#000000" font-size="5px" font-weight="bold" font-family="'Helvetica Neue', Helvetica, Arial-Unicode, Arial, Sans-serif">from the Noun Project</text></svg>