<svg xmlns="http://www.w3.org/2000/svg" viewBox="0 0 43.7 56.31"><defs><style>.cls-1{fill:#90a4ae;}</style></defs><title>Asset 2</title><g id="Layer_2" data-name="Layer 2"><g id="Layer_1-2" data-name="Layer 1"><path class="cls-1" d="M25.43,42.49l7.1-9.81h.07a11.14,11.14,0,0,0,8.83-17.89A6.15,6.15,0,0,0,42,12.26,6.23,6.23,0,0,0,31.09,8.08,14.49,14.49,0,0,0,3.62,14.41,9.73,9.73,0,0,0,9.7,31.71a9.59,9.59,0,0,0,3.15-.53v6.53L7.51,33.15a1.34,1.34,0,1,0-1.73,2l2.36,2-3.36.08a1.34,1.34,0,0,0,0,2.69h0l6.35-.15,1.66,1.42V53a1.94,1.94,0,0,0,.1.63h-9a1.34,1.34,0,0,0,0,2.68H34.33a1.34,1.34,0,0,0,0-2.68h-9a2,2,0,0,0,.1-.63Zm0-12.45a11,11,0,0,0,4.11,2.2l-4.11,5.68Z"/></g></g></svg>